<svg version="1.1" xmlns="http://www.w3.org/2000/svg" viewBox="0 0 1087.8838546809448 3765.231661087964" width="1087.8838546809448" height="3765.231661087964" filter="invert(93%) hue-rotate(180deg)">
  <!-- svg-source:excalidraw -->
  
  <defs>
    <style class="style-fonts">
      @font-face {
        font-family: "Virgil";
        src: url("https://excalidraw.com/Virgil.woff2");
      }
      @font-face {
        font-family: "Cascadia";
        src: url("https://excalidraw.com/Cascadia.woff2");
      }
    </style>
    
  </defs>
  <rect x="0" y="0" width="1087.8838546809448" height="3765.231661087964" fill="#ffffff"></rect><g transform="translate(453.06978064879223 1150) rotate(0 58.149940490722656 12.5)"><text x="0" y="0" font-family="Virgil, Segoe UI Emoji" font-size="20px" fill="#000000" text-anchor="start" style="white-space: pre;" direction="ltr" dominant-baseline="text-before-edge">Client-Model</text></g><g stroke-linecap="round" transform="translate(658.0697806487922 1063) rotate(0 78 30)"><path d="M15 0 M15 0 C52.01 -0.21, 87.13 1.04, 141 0 M15 0 C50.31 -0.87, 87.96 -1.18, 141 0 M141 0 C151.85 -1.36, 155.24 6.48, 156 15 M141 0 C153.27 1.41, 157.6 7.26, 156 15 M156 15 C155.3 23.05, 156.37 27.07, 156 45 M156 15 C155.42 25.38, 156.46 36.7, 156 45 M156 45 C156.3 54.26, 152.94 59.84, 141 60 M156 45 C155.21 56.43, 149.37 59.83, 141 60 M141 60 C104.22 57.96, 65.58 61.44, 15 60 M141 60 C93.21 62.01, 45.93 61.07, 15 60 M15 60 C5.03 59, -0.86 55.37, 0 45 M15 60 C6.89 61.81, -1.4 55.06, 0 45 M0 45 C1.46 34.67, -1.7 21.05, 0 15 M0 45 C-0.67 33.87, -0.46 22.75, 0 15 M0 15 C-0.19 6.69, 5.36 -1.74, 15 0 M0 15 C0.01 6.19, 3.06 1.43, 15 0" stroke="#000000" stroke-width="1" fill="none"></path></g><g transform="translate(688.9798377166633 1068) rotate(0 47.089942932128906 25)"><text x="47.089942932128906" y="0" font-family="Virgil, Segoe UI Emoji" font-size="20px" fill="#000000" text-anchor="middle" style="white-space: pre;" direction="ltr" dominant-baseline="text-before-edge">Lista de </text><text x="47.089942932128906" y="25" font-family="Virgil, Segoe UI Emoji" font-size="20px" fill="#000000" text-anchor="middle" style="white-space: pre;" direction="ltr" dominant-baseline="text-before-edge">precios</text></g><g stroke-linecap="round" transform="translate(653.0697806487922 1150) rotate(0 80.5 30)"><path d="M15 0 M15 0 C56.12 -1.96, 98.8 -2.69, 146 0 M15 0 C53.22 0.76, 90.7 0.72, 146 0 M146 0 C157.58 1.54, 160.96 6.95, 161 15 M146 0 C155.31 1.8, 160.78 4.64, 161 15 M161 15 C161.22 25.69, 162.43 31.89, 161 45 M161 15 C160.76 24.79, 161.92 32.29, 161 45 M161 45 C160.34 56.75, 156.6 60.94, 146 60 M161 45 C159.66 56.14, 155.16 62.29, 146 60 M146 60 C106.18 60.25, 70.87 58.55, 15 60 M146 60 C98 59.74, 52.03 59.95, 15 60 M15 60 C4.28 58.42, -0.19 53.02, 0 45 M15 60 C5.01 60.83, 1.91 55.2, 0 45 M0 45 C-2.05 36.04, -1.59 22.78, 0 15 M0 45 C0.65 34.51, -0.38 22.83, 0 15 M0 15 C-1.45 3.22, 5.02 -0.29, 15 0 M0 15 C-1.89 4.32, 4.05 1.45, 15 0" stroke="#000000" stroke-width="1" fill="none"></path></g><g transform="translate(671.4398444305305 1155) rotate(0 62.12993621826172 25)"><text x="62.12993621826172" y="0" font-family="Virgil, Segoe UI Emoji" font-size="20px" fill="#000000" text-anchor="middle" style="white-space: pre;" direction="ltr" dominant-baseline="text-before-edge">Documentos </text><text x="62.12993621826172" y="25" font-family="Virgil, Segoe UI Emoji" font-size="20px" fill="#000000" text-anchor="middle" style="white-space: pre;" direction="ltr" dominant-baseline="text-before-edge">generados</text></g><g stroke-linecap="round" transform="translate(667.0697806487922 1229) rotate(0 78 30)"><path d="M15 0 M15 0 C50.61 -0.89, 88.6 1.62, 141 0 M15 0 C63.62 -0.2, 109.96 0.67, 141 0 M141 0 C152.32 -1.76, 155.34 6.75, 156 15 M141 0 C151.69 1.08, 154.66 6.14, 156 15 M156 15 C157.99 23.26, 154.56 30.81, 156 45 M156 15 C156.01 24.95, 155.19 36.62, 156 45 M156 45 C157.84 56.45, 150.28 58.42, 141 60 M156 45 C155.78 52.72, 151.01 60.83, 141 60 M141 60 C94.69 62.62, 42.74 62.17, 15 60 M141 60 C111.56 59.82, 82.51 60.91, 15 60 M15 60 C4.32 58.4, -1.45 53.22, 0 45 M15 60 C5.02 59.67, -1.89 54.32, 0 45 M0 45 C-0.8 38.2, 0.61 28.67, 0 15 M0 45 C0.52 34.96, 0.85 27.35, 0 15 M0 15 C0.26 6.7, 3.42 0.12, 15 0 M0 15 C1.13 4.55, 4.88 1.74, 15 0" stroke="#000000" stroke-width="1" fill="none"></path></g><g transform="translate(693.6298468719367 1234) rotate(0 51.43993377685547 25)"><text x="51.43993377685547" y="0" font-family="Virgil, Segoe UI Emoji" font-size="20px" fill="#000000" text-anchor="middle" style="white-space: pre;" direction="ltr" dominant-baseline="text-before-edge">Ediciones </text><text x="51.43993377685547" y="25" font-family="Virgil, Segoe UI Emoji" font-size="20px" fill="#000000" text-anchor="middle" style="white-space: pre;" direction="ltr" dominant-baseline="text-before-edge">realizadas</text></g><g stroke-linecap="round" transform="translate(668.0697806487922 1319) rotate(0 78 17.5)"><path d="M8.75 0 M8.75 0 C46.91 0.49, 79.94 0.14, 147.25 0 M8.75 0 C57.71 -1.46, 105.59 -0.34, 147.25 0 M147.25 0 C154.93 1.45, 155.28 1.34, 156 8.75 M147.25 0 C152.87 -2.28, 156.01 3.74, 156 8.75 M156 8.75 C157.71 17.19, 154.47 23.5, 156 26.25 M156 8.75 C156.03 12.09, 156.51 17.14, 156 26.25 M156 26.25 C155.32 30.49, 151.64 33.22, 147.25 35 M156 26.25 C156.02 31.75, 151.2 34.32, 147.25 35 M147.25 35 C110.78 36.17, 76.34 34.4, 8.75 35 M147.25 35 C104.95 33.37, 62.32 35.06, 8.75 35 M8.75 35 C3.17 36.7, -1.58 32.2, 0 26.25 M8.75 35 C4.04 34.55, -0.12 33.82, 0 26.25 M0 26.25 C0.77 21.65, 0.38 17.36, 0 8.75 M0 26.25 C0.98 20.43, -0.08 16.32, 0 8.75 M0 8.75 C-0.29 2.64, 4.87 1.62, 8.75 0 M0 8.75 C1.77 3.59, 1.74 -0.56, 8.75 0" stroke="#000000" stroke-width="1" fill="none"></path></g><g transform="translate(675.4198554168586 1324) rotate(0 70.6499252319336 12.5)"><text x="70.6499252319336" y="0" font-family="Virgil, Segoe UI Emoji" font-size="20px" fill="#000000" text-anchor="middle" style="white-space: pre;" direction="ltr" dominant-baseline="text-before-edge">Change Orders</text></g><g stroke-linecap="round" transform="translate(154.06978064879223 1247) rotate(0 91 28)"><path d="M14 0 M14 0 C74.24 1.7, 132.1 -0.54, 168 0 M14 0 C58.63 1.14, 103.21 -0.11, 168 0 M168 0 C176.74 -0.25, 183.88 4.71, 182 14 M168 0 C176.13 0.91, 183.68 6.21, 182 14 M182 14 C182.87 23.87, 182.82 32.44, 182 42 M182 14 C181.78 22.5, 182.77 29.74, 182 42 M182 42 C181.24 52.92, 178.36 55.82, 168 56 M182 42 C181.57 50.02, 178.73 56.96, 168 56 M168 56 C131.6 58.05, 98.01 58.01, 14 56 M168 56 C128.09 56.15, 87.73 56.71, 14 56 M14 56 C3.82 56.52, 0.07 53.22, 0 42 M14 56 C5.61 54.84, -2.17 53.09, 0 42 M0 42 C-2.1 30.89, -0.12 23.56, 0 14 M0 42 C0.58 31.39, -0.68 23.54, 0 14 M0 14 C0.1 5.08, 3.92 -0.04, 14 0 M0 14 C2.02 5.86, 2.54 1.88, 14 0" stroke="#000000" stroke-width="1" fill="none"></path></g><g transform="translate(178.06978064879223 1266) rotate(0 73.05992126464844 12.5)"><text x="0" y="0" font-family="Virgil, Segoe UI Emoji" font-size="20px" fill="#000000" text-anchor="start" style="white-space: pre;" direction="ltr" dominant-baseline="text-before-edge">User::Consultor</text></g><g stroke-linecap="round"><g transform="translate(308.7973010847595 1237) rotate(0 61.502356656853664 -40.545612040855914)"><path d="M0 0.82 C20.93 -12.42, 103.78 -66.42, 124.46 -80.2 M-1.46 0.2 C19.51 -13.31, 103.28 -68.37, 124.14 -81.91" stroke="#e03131" stroke-width="2" fill="none"></path></g><g transform="translate(308.7973010847595 1237) rotate(0 61.502356656853664 -40.545612040855914)"><path d="M107.52 -55.91 C111.39 -61.54, 112.32 -67.17, 123.19 -83 M106.26 -57.19 C111.08 -65.56, 117.42 -74.36, 124.1 -81.33" stroke="#e03131" stroke-width="2" fill="none"></path></g><g transform="translate(308.7973010847595 1237) rotate(0 61.502356656853664 -40.545612040855914)"><path d="M96.29 -73.09 C102.38 -75.15, 105.65 -77.2, 123.19 -83 M95.04 -74.37 C103.65 -77.2, 113.65 -80.41, 124.1 -81.33" stroke="#e03131" stroke-width="2" fill="none"></path></g></g><mask></mask><g transform="translate(425.06978064879223 978) rotate(0 74.91991424560547 25)"><text x="0" y="0" font-family="Virgil, Segoe UI Emoji" font-size="20px" fill="#000000" text-anchor="start" style="white-space: pre;" direction="ltr" dominant-baseline="text-before-edge">User::Cotizador</text><text x="0" y="25" font-family="Virgil, Segoe UI Emoji" font-size="20px" fill="#000000" text-anchor="start" style="white-space: pre;" direction="ltr" dominant-baseline="text-before-edge">User::Ops</text></g><g stroke-linecap="round" transform="translate(414.06978064879223 969) rotate(0 90 36.5)"><path d="M18.25 0 M18.25 0 C51.75 -1.35, 81.13 0.89, 161.75 0 M18.25 0 C66.92 0.62, 116.96 -0.2, 161.75 0 M161.75 0 C173.11 -0.03, 178.12 7.99, 180 18.25 M161.75 0 C174.17 1.79, 179.91 6.28, 180 18.25 M180 18.25 C180.02 33.94, 180.95 44.15, 180 54.75 M180 18.25 C179.77 31.6, 180.26 45.33, 180 54.75 M180 54.75 C178.61 68.28, 175.74 71.87, 161.75 73 M180 54.75 C181.12 67.37, 174.84 71.84, 161.75 73 M161.75 73 C105.77 72.86, 50.63 75.8, 18.25 73 M161.75 73 C117.02 73.43, 71.24 74.44, 18.25 73 M18.25 73 C5.22 72.01, -0.68 68.85, 0 54.75 M18.25 73 C8.35 73.9, 1.6 68.25, 0 54.75 M0 54.75 C0 42.18, 1.54 26.37, 0 18.25 M0 54.75 C0.81 43.59, -0.26 32.41, 0 18.25 M0 18.25 C-1.97 7.09, 4.2 -1.95, 18.25 0 M0 18.25 C0.83 6.98, 7.21 0.11, 18.25 0" stroke="#000000" stroke-width="1" fill="none"></path></g><g stroke-linecap="round"><g transform="translate(500.5356085984692 1049) rotate(0 0.9713255548469419 34.58957310543861)"><path d="M1.13 0.17 C1.52 11.8, 1.7 58.64, 1.67 69.97 M0.27 -0.79 C0.65 10.51, 1.29 56.72, 1.32 68.35" stroke="#e03131" stroke-width="2" fill="none"></path></g><g transform="translate(500.5356085984692 1049) rotate(0 0.9713255548469419 34.58957310543861)"><path d="M-8.92 42.15 C-4.95 47.82, -5.41 53.38, 1.88 67.49 M-8.22 40.65 C-5.97 47.77, -3.34 55.03, 1.51 68.5" stroke="#e03131" stroke-width="2" fill="none"></path></g><g transform="translate(500.5356085984692 1049) rotate(0 0.9713255548469419 34.58957310543861)"><path d="M11.6 41.96 C10.49 47.87, 4.96 53.47, 1.88 67.49 M12.3 40.46 C9.41 47.83, 6.9 55.14, 1.51 68.5" stroke="#e03131" stroke-width="2" fill="none"></path></g></g><mask></mask><g stroke-linecap="round"><g transform="translate(507.06978064879223 1194) rotate(0 -1.799572575492789 44.99220838780515)"><path d="M-1.11 -0.21 C-1.54 14.91, -2.78 74.65, -3.1 89.87 M0.51 -1.36 C-0.04 14.01, -3.39 76.22, -4.11 91.34" stroke="#e03131" stroke-width="2" fill="none"></path></g></g><mask></mask><g transform="translate(456.06978064879223 1302) rotate(0 55.11993408203125 12.5)"><text x="0" y="0" font-family="Virgil, Segoe UI Emoji" font-size="20px" fill="#000000" text-anchor="start" style="white-space: pre;" direction="ltr" dominant-baseline="text-before-edge">Estructura</text></g><g stroke-linecap="round"><g transform="translate(504.06978064879223 1344) rotate(0 -0.20776284642749943 47.28299374363161)"><path d="M1.16 -0.4 C1.03 15.52, -0.6 79.02, -1.12 95.3 M0.31 -1.65 C0.13 14.39, -1.07 80.05, -1.57 96.22" stroke="#e03131" stroke-width="2" fill="none"></path></g><g transform="translate(504.06978064879223 1344) rotate(0 -0.20776284642749943 47.28299374363161)"><path d="M-11.83 69.37 C-10.56 75.58, -4.61 83.44, 0.11 96.41 M-11.26 67.3 C-8.92 75.73, -6.32 83.76, -2.51 96.65" stroke="#e03131" stroke-width="2" fill="none"></path></g><g transform="translate(504.06978064879223 1344) rotate(0 -0.20776284642749943 47.28299374363161)"><path d="M8.68 69.85 C4.36 76.13, 4.7 83.86, 0.11 96.41 M9.26 67.78 C6.16 76.06, 3.34 83.96, -2.51 96.65" stroke="#e03131" stroke-width="2" fill="none"></path></g></g><mask></mask><g transform="translate(223.06978064879223 1467) rotate(0 274.0696716308594 287.5)"><text x="0" y="0" font-family="Virgil, Segoe UI Emoji" font-size="20px" fill="#000000" text-anchor="start" style="white-space: pre;" direction="ltr" dominant-baseline="text-before-edge">ID</text><text x="0" y="25" font-family="Virgil, Segoe UI Emoji" font-size="20px" fill="#000000" text-anchor="start" style="white-space: pre;" direction="ltr" dominant-baseline="text-before-edge">Nombre</text><text x="0" y="50" font-family="Virgil, Segoe UI Emoji" font-size="20px" fill="#000000" text-anchor="start" style="white-space: pre;" direction="ltr" dominant-baseline="text-before-edge">Apellido</text><text x="0" y="75" font-family="Virgil, Segoe UI Emoji" font-size="20px" fill="#000000" text-anchor="start" style="white-space: pre;" direction="ltr" dominant-baseline="text-before-edge">Telefono</text><text x="0" y="100" font-family="Virgil, Segoe UI Emoji" font-size="20px" fill="#000000" text-anchor="start" style="white-space: pre;" direction="ltr" dominant-baseline="text-before-edge">Correo</text><text x="0" y="125" font-family="Virgil, Segoe UI Emoji" font-size="20px" fill="#000000" text-anchor="start" style="white-space: pre;" direction="ltr" dominant-baseline="text-before-edge">SSN</text><text x="0" y="150" font-family="Virgil, Segoe UI Emoji" font-size="20px" fill="#000000" text-anchor="start" style="white-space: pre;" direction="ltr" dominant-baseline="text-before-edge">Fecha de nacimiento</text><text x="0" y="175" font-family="Virgil, Segoe UI Emoji" font-size="20px" fill="#000000" text-anchor="start" style="white-space: pre;" direction="ltr" dominant-baseline="text-before-edge">consultor_id</text><text x="0" y="200" font-family="Virgil, Segoe UI Emoji" font-size="20px" fill="#000000" text-anchor="start" style="white-space: pre;" direction="ltr" dominant-baseline="text-before-edge">cotizador_id</text><text x="0" y="225" font-family="Virgil, Segoe UI Emoji" font-size="20px" fill="#000000" text-anchor="start" style="white-space: pre;" direction="ltr" dominant-baseline="text-before-edge">cotizadores=[cotizador1, cotizador2, cotizador3...]</text><text x="0" y="250" font-family="Virgil, Segoe UI Emoji" font-size="20px" fill="#000000" text-anchor="start" style="white-space: pre;" direction="ltr" dominant-baseline="text-before-edge">Dirección</text><text x="0" y="275" font-family="Virgil, Segoe UI Emoji" font-size="20px" fill="#000000" text-anchor="start" style="white-space: pre;" direction="ltr" dominant-baseline="text-before-edge">financiera:</text><text x="0" y="300" font-family="Virgil, Segoe UI Emoji" font-size="20px" fill="#000000" text-anchor="start" style="white-space: pre;" direction="ltr" dominant-baseline="text-before-edge">Tipo de solicitud:</text><text x="0" y="325" font-family="Virgil, Segoe UI Emoji" font-size="20px" fill="#000000" text-anchor="start" style="white-space: pre;" direction="ltr" dominant-baseline="text-before-edge">Bono</text><text x="0" y="350" font-family="Virgil, Segoe UI Emoji" font-size="20px" fill="#000000" text-anchor="start" style="white-space: pre;" direction="ltr" dominant-baseline="text-before-edge">Parcela en catastro o Coordenadas.</text><text x="0" y="375" font-family="Virgil, Segoe UI Emoji" font-size="20px" fill="#000000" text-anchor="start" style="white-space: pre;" direction="ltr" dominant-baseline="text-before-edge">Facturas=[foto 1, foto 2, foto 3]</text><text x="0" y="400" font-family="Virgil, Segoe UI Emoji" font-size="20px" fill="#000000" text-anchor="start" style="white-space: pre;" direction="ltr" dominant-baseline="text-before-edge">referido_id</text><text x="0" y="425" font-family="Virgil, Segoe UI Emoji" font-size="20px" fill="#000000" text-anchor="start" style="white-space: pre;" direction="ltr" dominant-baseline="text-before-edge">Propuesta SUNRUN PK</text><text x="0" y="450" font-family="Virgil, Segoe UI Emoji" font-size="20px" fill="#000000" text-anchor="start" style="white-space: pre;" direction="ltr" dominant-baseline="text-before-edge">Estatus del cliente</text><text x="0" y="475" font-family="Virgil, Segoe UI Emoji" font-size="20px" fill="#000000" text-anchor="start" style="white-space: pre;" direction="ltr" dominant-baseline="text-before-edge">EPC</text><text x="0" y="500" font-family="Virgil, Segoe UI Emoji" font-size="20px" fill="#000000" text-anchor="start" style="white-space: pre;" direction="ltr" dominant-baseline="text-before-edge">System Size</text><text x="0" y="525" font-family="Virgil, Segoe UI Emoji" font-size="20px" fill="#000000" text-anchor="start" style="white-space: pre;" direction="ltr" dominant-baseline="text-before-edge">Numero de placas.</text><text x="0" y="550" font-family="Virgil, Segoe UI Emoji" font-size="20px" fill="#000000" text-anchor="start" style="white-space: pre;" direction="ltr" dominant-baseline="text-before-edge">Sugerencias/Solicitudes: (bateria, cantidad placas...etc)</text></g><g stroke-linecap="round"><g transform="translate(648.0697806487922 1090) rotate(0 -24.623825205592425 18.016795341237454)"><path d="M-1.07 0.97 C-9.03 6.78, -40.73 29.97, -48.92 35.6 M0.57 0.43 C-7.44 5.82, -41.74 27.87, -49.82 33.8" stroke="#e03131" stroke-width="2" fill="none"></path></g><g transform="translate(648.0697806487922 1090) rotate(0 -24.623825205592425 18.016795341237454)"><path d="M-30.67 9.59 C-34.71 12.32, -39.66 17.88, -50.22 32.12 M-32.03 9.11 C-37.45 16.47, -41.54 22.44, -48.95 34.18" stroke="#e03131" stroke-width="2" fill="none"></path></g><g transform="translate(648.0697806487922 1090) rotate(0 -24.623825205592425 18.016795341237454)"><path d="M-19.13 26.56 C-25.62 25.72, -32.93 27.83, -50.22 32.12 M-20.49 26.08 C-29.24 28.48, -36.63 29.61, -48.95 34.18" stroke="#e03131" stroke-width="2" fill="none"></path></g></g><mask></mask><g stroke-linecap="round"><g transform="translate(654.0697806487922 1179) rotate(0 -31.32667185330297 -5.805317236483106)"><path d="M1.04 0.47 C-9.63 -1.39, -52.31 -10.02, -63.18 -12.08 M0.13 -0.33 C-10.71 -1.92, -52.84 -8.88, -63.69 -10.58" stroke="#e03131" stroke-width="2" fill="none"></path></g><g transform="translate(654.0697806487922 1179) rotate(0 -31.32667185330297 -5.805317236483106)"><path d="M-33.45 -14.85 C-45.37 -14.14, -56.02 -11.87, -62.88 -8.69 M-34.29 -15.6 C-40.5 -15.02, -46.41 -14.63, -62.85 -9.95" stroke="#e03131" stroke-width="2" fill="none"></path></g><g transform="translate(654.0697806487922 1179) rotate(0 -31.32667185330297 -5.805317236483106)"><path d="M-36.71 5.41 C-47.26 -1.45, -56.7 -6.72, -62.88 -8.69 M-37.55 4.66 C-43.07 0.9, -48.28 -3.02, -62.85 -9.95" stroke="#e03131" stroke-width="2" fill="none"></path></g></g><mask></mask><g stroke-linecap="round"><g transform="translate(653.0697806487922 1241.0432240221257) rotate(0 -39.56075263941193 -20.93226906523472)"><path d="M0.1 0.78 C-12.97 -5.83, -65.17 -33.63, -78.18 -40.7 M-1.31 0.14 C-14.57 -6.76, -66.32 -35.84, -79.22 -42.64" stroke="#e03131" stroke-width="2" fill="none"></path></g><g transform="translate(653.0697806487922 1241.0432240221257) rotate(0 -39.56075263941193 -20.93226906523472)"><path d="M-48.27 -38.42 C-58.41 -39.49, -69.47 -41.23, -78.95 -42.62 M-49.42 -38.75 C-58.49 -39.53, -66.8 -40.41, -78.95 -42.39" stroke="#e03131" stroke-width="2" fill="none"></path></g><g transform="translate(653.0697806487922 1241.0432240221257) rotate(0 -39.56075263941193 -20.93226906523472)"><path d="M-58.11 -20.42 C-64.96 -27.23, -72.88 -34.72, -78.95 -42.62 M-59.26 -20.74 C-65.25 -26.83, -70.65 -33.02, -78.95 -42.39" stroke="#e03131" stroke-width="2" fill="none"></path></g></g><mask></mask><g stroke-linecap="round"><g transform="translate(672.0697806487922 1321) rotate(0 -48.04536833667663 -52.02838578833733)"><path d="M0.71 -0.79 C-15.41 -18.49, -79.92 -88.23, -96.25 -105.47 M-0.38 1.42 C-16.63 -16.19, -80.5 -86.25, -96.8 -104.18" stroke="#e03131" stroke-width="2" fill="none"></path></g><g transform="translate(672.0697806487922 1321) rotate(0 -48.04536833667663 -52.02838578833733)"><path d="M-71.54 -88.99 C-80.09 -95.24, -87 -99.63, -96.27 -103.73 M-70.66 -89.71 C-78.2 -94.34, -88.38 -100.35, -97.07 -103.82" stroke="#e03131" stroke-width="2" fill="none"></path></g><g transform="translate(672.0697806487922 1321) rotate(0 -48.04536833667663 -52.02838578833733)"><path d="M-86.71 -75.18 C-90.22 -86.18, -92 -95.25, -96.27 -103.73 M-85.83 -75.9 C-88.36 -85, -93.59 -95.52, -97.07 -103.82" stroke="#e03131" stroke-width="2" fill="none"></path></g></g><mask></mask><g transform="translate(105.06978064879223 842) rotate(0 402.37213134765625 45)"><text x="0" y="0" font-family="Virgil, Segoe UI Emoji" font-size="36px" fill="#000000" text-anchor="start" style="white-space: pre;" direction="ltr" dominant-baseline="text-before-edge">Propuesta de estructura de Base de Datos</text><text x="0" y="45" font-family="Virgil, Segoe UI Emoji" font-size="36px" fill="#000000" text-anchor="start" style="white-space: pre;" direction="ltr" dominant-baseline="text-before-edge"></text></g><g stroke-linecap="round" transform="translate(185.06978064879223 1455) rotate(0 310.5 301.5)"><path d="M32 0 M32 0 C194.83 -1.25, 356.9 -1.85, 589 0 M32 0 C250.32 0.83, 468.17 0.68, 589 0 M589 0 C608.43 0.4, 620.62 12.66, 621 32 M589 0 C612.14 -0.77, 620.09 10.74, 621 32 M621 32 C619.62 172.46, 619.57 314.01, 621 571 M621 32 C621.4 148.22, 621.93 264.3, 621 571 M621 571 C619.73 594.03, 609.72 601.77, 589 603 M621 571 C621.98 590.06, 611.7 601.2, 589 603 M589 603 C430.71 601.55, 272.4 601.35, 32 603 M589 603 C375.28 604.95, 160.79 604.99, 32 603 M32 603 C11.55 602.42, 0.58 592.19, 0 571 M32 603 C11.48 604.17, 1.63 594.56, 0 571 M0 571 C-1.54 360.69, -0.63 149.59, 0 32 M0 571 C0.2 380.75, -0.01 189.82, 0 32 M0 32 C-0.42 12.32, 11.6 -0.29, 32 0 M0 32 C1.61 12.26, 8.85 -1.71, 32 0" stroke="#000000" stroke-width="1" fill="none"></path></g><g transform="translate(377.06978064879223 1462) rotate(0 126.09002685546875 22.5)"><text x="0" y="0" font-family="Virgil, Segoe UI Emoji" font-size="36px" fill="#000000" text-anchor="start" style="white-space: pre;" direction="ltr" dominant-baseline="text-before-edge">Modelo Cliente</text></g><g transform="translate(301.06978064879223 2090) rotate(0 198.68406677246094 22.5)"><text x="0" y="0" font-family="Virgil, Segoe UI Emoji" font-size="36px" fill="#000000" text-anchor="start" style="white-space: pre;" direction="ltr" dominant-baseline="text-before-edge">Documentos generados</text></g><g stroke-linecap="round"><g transform="translate(72.06978064879223 2066) rotate(0 441 1)"><path d="M0 0 C147 0.33, 735 1.67, 882 2 M0 0 C147 0.33, 735 1.67, 882 2" stroke="#000000" stroke-width="4" fill="none"></path></g></g><mask></mask><g stroke-linecap="round" transform="translate(89.06978064879223 2162) rotate(0 428.5 332)"><path d="M32 0 M32 0 C304.16 2.2, 574.86 1.75, 825 0 M32 0 C300.71 1.68, 569.68 1.2, 825 0 M825 0 C847.87 1.82, 855.5 10.66, 857 32 M825 0 C844.37 -1.44, 857.04 12.37, 857 32 M857 32 C855.46 196.48, 855.02 362.83, 857 632 M857 32 C856.6 270.08, 856.8 507.73, 857 632 M857 632 C857.09 653.53, 847.15 664.42, 825 664 M857 632 C858.12 652.92, 844.28 662.36, 825 664 M825 664 C541.24 664.62, 257.66 663.78, 32 664 M825 664 C556.56 666.69, 287.9 666.3, 32 664 M32 664 C11.35 665.14, -0.55 652.65, 0 632 M32 664 C8.47 665.92, 1.8 655.05, 0 632 M0 632 C1.86 451.35, 1.37 270.85, 0 32 M0 632 C-1.6 407.88, -1.39 184.48, 0 32 M0 32 C-0.12 10.99, 9.25 1.6, 32 0 M0 32 C1.94 9.25, 8.64 1.07, 32 0" stroke="#000000" stroke-width="1" fill="none"></path></g><g transform="translate(225.06978064879223 2193) rotate(0 65.88993072509766 12.5)"><text x="0" y="0" font-family="Virgil, Segoe UI Emoji" font-size="20px" fill="#000000" text-anchor="start" style="white-space: pre;" direction="ltr" dominant-baseline="text-before-edge">Medicion neta</text></g><g transform="translate(447.06978064879223 2194) rotate(0 49.62994384765625 12.5)"><text x="0" y="0" font-family="Virgil, Segoe UI Emoji" font-size="20px" fill="#000000" text-anchor="start" style="white-space: pre;" direction="ltr" dominant-baseline="text-before-edge">Cotizacion</text></g><g transform="translate(674.0697806487922 2197) rotate(0 86.98989868164062 12.5)"><text x="0" y="0" font-family="Virgil, Segoe UI Emoji" font-size="20px" fill="#000000" text-anchor="start" style="white-space: pre;" direction="ltr" dominant-baseline="text-before-edge">Reporte de venta</text></g><g transform="translate(418.3857138763313 2879.5) rotate(0 96.19202423095703 22.5)"><text x="0" y="0" font-family="Virgil, Segoe UI Emoji" font-size="36px" fill="#000000" text-anchor="start" style="white-space: pre;" direction="ltr" dominant-baseline="text-before-edge">User-Model</text></g><g transform="translate(234.06978064879223 2959) rotate(0 295.21966552734375 137.5)"><text x="0" y="0" font-family="Virgil, Segoe UI Emoji" font-size="20px" fill="#000000" text-anchor="start" style="white-space: pre;" direction="ltr" dominant-baseline="text-before-edge">id:</text><text x="0" y="25" font-family="Virgil, Segoe UI Emoji" font-size="20px" fill="#000000" text-anchor="start" style="white-space: pre;" direction="ltr" dominant-baseline="text-before-edge">Email</text><text x="0" y="50" font-family="Virgil, Segoe UI Emoji" font-size="20px" fill="#000000" text-anchor="start" style="white-space: pre;" direction="ltr" dominant-baseline="text-before-edge">Password</text><text x="0" y="75" font-family="Virgil, Segoe UI Emoji" font-size="20px" fill="#000000" text-anchor="start" style="white-space: pre;" direction="ltr" dominant-baseline="text-before-edge">Name</text><text x="0" y="100" font-family="Virgil, Segoe UI Emoji" font-size="20px" fill="#000000" text-anchor="start" style="white-space: pre;" direction="ltr" dominant-baseline="text-before-edge">Last_name</text><text x="0" y="125" font-family="Virgil, Segoe UI Emoji" font-size="20px" fill="#000000" text-anchor="start" style="white-space: pre;" direction="ltr" dominant-baseline="text-before-edge">Turnos/guardias</text><text x="0" y="150" font-family="Virgil, Segoe UI Emoji" font-size="20px" fill="#000000" text-anchor="start" style="white-space: pre;" direction="ltr" dominant-baseline="text-before-edge">Role: "Consultor" || "Cotizador" || "Otros"</text><text x="0" y="175" font-family="Virgil, Segoe UI Emoji" font-size="20px" fill="#000000" text-anchor="start" style="white-space: pre;" direction="ltr" dominant-baseline="text-before-edge">AutorizationLevel: "Q" || "Captain" || 'commander' || "liutenant"</text><text x="0" y="200" font-family="Virgil, Segoe UI Emoji" font-size="20px" fill="#000000" text-anchor="start" style="white-space: pre;" direction="ltr" dominant-baseline="text-before-edge"> || "ensign"</text><text x="0" y="225" font-family="Virgil, Segoe UI Emoji" font-size="20px" fill="#000000" text-anchor="start" style="white-space: pre;" direction="ltr" dominant-baseline="text-before-edge">team: "consultor_lider_name" || "departamento_name"</text><text x="0" y="250" font-family="Virgil, Segoe UI Emoji" font-size="20px" fill="#000000" text-anchor="start" style="white-space: pre;" direction="ltr" dominant-baseline="text-before-edge">team_id</text></g><g stroke-linecap="round" transform="translate(123.06978064879223 1372) rotate(0 120 30)"><path d="M15 0 M15 0 C69.32 -0.57, 119.57 1.08, 225 0 M15 0 C64.18 -0.1, 113.02 0.22, 225 0 M225 0 C236.23 0.46, 239.41 3.61, 240 15 M225 0 C237.27 2.06, 241.92 5.2, 240 15 M240 15 C240.4 20.62, 240.34 27.44, 240 45 M240 15 C239.69 26.08, 240.15 35.05, 240 45 M240 45 C238.02 54.68, 236.32 61.07, 225 60 M240 45 C242.16 56.65, 234.15 57.99, 225 60 M225 60 C180.13 59.75, 135.89 59.19, 15 60 M225 60 C181.2 60.65, 138.92 59.63, 15 60 M15 60 C6.66 61.23, -0.52 55.25, 0 45 M15 60 C3.5 60.34, 1.07 53.72, 0 45 M0 45 C1.54 35.97, 0.88 29.51, 0 15 M0 45 C0.24 37.25, 0.07 30.54, 0 15 M0 15 C-0.33 5.72, 5.14 -1.87, 15 0 M0 15 C1.33 3.79, 6.95 1.76, 15 0" stroke="#000000" stroke-width="1" fill="none"></path></g><g transform="translate(200.4198248992805 1377) rotate(0 42.64995574951172 25)"><text x="42.64995574951172" y="0" font-family="Virgil, Segoe UI Emoji" font-size="20px" fill="#000000" text-anchor="middle" style="white-space: pre;" direction="ltr" dominant-baseline="text-before-edge">Team</text><text x="42.64995574951172" y="25" font-family="Virgil, Segoe UI Emoji" font-size="20px" fill="#000000" text-anchor="middle" style="white-space: pre;" direction="ltr" dominant-baseline="text-before-edge">Team_id</text></g><g stroke-linecap="round"><g transform="translate(146.26145171334895 1263.352788432299) rotate(0 -67.86045968164188 79.50188165163755)"><path d="M-1.09 0.62 C-8.47 0.15, -28.55 -3.33, -43.63 -1.78 C-58.72 -0.23, -76.43 -15.96, -91.6 9.91 C-106.76 35.78, -144.57 129.46, -134.61 153.45 C-124.66 177.45, -48.92 153.66, -31.85 153.87 M0.54 -0.1 C-6.51 0.09, -25.79 -1.97, -41.25 -0.65 C-56.72 0.67, -76.76 -17.97, -92.25 7.82 C-107.74 33.62, -144.02 129.75, -134.18 154.12 C-124.35 178.49, -50.46 154.07, -33.24 154.04" stroke="#1971c2" stroke-width="2" fill="none"></path></g><g transform="translate(146.26145171334895 1263.352788432299) rotate(0 -67.86045968164188 79.50188165163755)"><path d="M-58.3 167.78 C-51.45 164.15, -40.03 159.1, -34.63 154.28 M-59.27 167.9 C-51.81 164.3, -44.63 161.66, -32.53 154.97" stroke="#1971c2" stroke-width="2" fill="none"></path></g><g transform="translate(146.26145171334895 1263.352788432299) rotate(0 -67.86045968164188 79.50188165163755)"><path d="M-61.71 147.55 C-53.47 151.17, -40.84 153.34, -34.63 154.28 M-62.68 147.67 C-54.35 149.41, -46.27 152.14, -32.53 154.97" stroke="#1971c2" stroke-width="2" fill="none"></path></g></g><mask></mask><g stroke-linecap="round"><g transform="translate(399.2531139821256 997.5116942322945) rotate(0 -168.80414319442983 197.5627309919014)"><path d="M0.47 -0.04 C-49.68 15.49, -246.87 52.53, -300.91 92.8 C-354.95 133.07, -317.95 193.53, -323.78 241.59 C-329.61 289.65, -342.87 355.79, -335.9 381.16 C-328.94 406.53, -290.61 391.71, -282.01 393.8 M-0.75 -1.1 C-50.5 14.07, -244.65 50.26, -298.58 90.84 C-352.51 131.43, -318.09 194.41, -324.33 242.43 C-330.58 290.45, -342.95 353.72, -336.04 378.95 C-329.12 404.19, -291.62 391.01, -282.86 393.83" stroke="#1971c2" stroke-width="2" fill="none"></path></g><g transform="translate(399.2531139821256 997.5116942322945) rotate(0 -168.80414319442983 197.5627309919014)"><path d="M-308.01 402.39 C-299.98 401.29, -294.58 396.52, -281.74 395.79 M-307.39 404.15 C-301 402.34, -295.03 399.4, -282.61 393.32" stroke="#1971c2" stroke-width="2" fill="none"></path></g><g transform="translate(399.2531139821256 997.5116942322945) rotate(0 -168.80414319442983 197.5627309919014)"><path d="M-308.42 383.98 C-300.32 388.32, -294.8 389, -281.74 395.79 M-307.8 385.74 C-301.49 388.39, -295.42 389.92, -282.61 393.32" stroke="#1971c2" stroke-width="2" fill="none"></path></g></g><mask></mask><g stroke-linecap="round" transform="translate(213.06978064879223 2946) rotate(0 311.5 198.5)"><path d="M32 0 M32 0 C229.63 -1.74, 426.23 -0.83, 591 0 M32 0 C153.84 -1.23, 275.11 -1.49, 591 0 M591 0 C612.5 0.74, 624.26 10.11, 623 32 M591 0 C613.4 -1.84, 623.84 12.66, 623 32 M623 32 C624.46 135.66, 626.58 236.91, 623 365 M623 32 C622.53 158.83, 621.95 285.44, 623 365 M623 365 C621.18 386.76, 613.19 397.72, 591 397 M623 365 C624.44 385.41, 611.45 396.74, 591 397 M591 397 C468.61 396.3, 347.75 396.28, 32 397 M591 397 C400.5 397.88, 209.32 397.82, 32 397 M32 397 C8.9 398.89, 1.31 387.82, 0 365 M32 397 C9.52 395.6, 0.86 384.36, 0 365 M0 365 C-0.79 239.63, -0.86 115.76, 0 32 M0 365 C-1.55 236.39, -0.66 108.28, 0 32 M0 32 C0.95 10.49, 12.15 -0.7, 32 0 M0 32 C-1.07 12.82, 10.6 1.52, 32 0" stroke="#000000" stroke-width="1" fill="none"></path></g><g stroke-linecap="round"><g transform="translate(601.0697806487922 1003) rotate(0 188.60823203771702 70.16346864532056)"><path d="M0.38 0.73 C6.98 -0.13, -20.33 0.43, 39.06 -4.83 C98.44 -10.09, 307.05 -57.61, 356.71 -30.84 C406.37 -4.06, 358.52 120.9, 337.02 155.81 C315.52 190.72, 245.66 174.6, 227.69 178.62 M-0.88 0.06 C5.7 -0.68, -20.78 1.27, 38.66 -3.73 C98.11 -8.73, 306.11 -56.63, 355.79 -29.96 C405.47 -3.29, 357.76 121.5, 336.75 156.29 C315.74 191.09, 247.91 174.96, 229.71 178.81" stroke="#1971c2" stroke-width="2" fill="none"></path></g><g transform="translate(601.0697806487922 1003) rotate(0 188.60823203771702 70.16346864532056)"><path d="M259.12 170.32 C249.3 170.8, 242.04 172.28, 227.73 178.29 M258.04 167.89 C250.98 170.87, 243.36 173.43, 229.39 179.59" stroke="#1971c2" stroke-width="2" fill="none"></path></g><g transform="translate(601.0697806487922 1003) rotate(0 188.60823203771702 70.16346864532056)"><path d="M259.11 190.85 C249.24 186.05, 241.99 182.26, 227.73 178.29 M258.02 188.41 C250.77 185.89, 243.15 182.95, 229.39 179.59" stroke="#1971c2" stroke-width="2" fill="none"></path></g></g><mask></mask><g stroke-linecap="round"><g transform="translate(605.0697806487922 994) rotate(0 200.45076558601085 108.8702684078165)"><path d="M1.15 -0.36 C5 -0.81, -27.27 4.56, 22.52 -3.85 C72.31 -12.26, 235.97 -53.11, 299.91 -50.82 C363.85 -48.53, 397.87 -34.39, 406.15 9.89 C414.42 54.17, 377.51 172.12, 349.56 214.87 C321.6 257.62, 256.81 257.81, 238.41 266.36 M0.3 -1.59 C4.08 -1.73, -28.04 5.82, 21.84 -2.24 C71.73 -10.3, 236.04 -52.12, 299.62 -49.93 C363.2 -47.73, 394.69 -33.34, 403.34 10.93 C411.99 55.21, 379.34 172.77, 351.51 215.72 C323.69 258.67, 255.5 259.93, 236.38 268.65" stroke="#1971c2" stroke-width="2" fill="none"></path></g><g transform="translate(605.0697806487922 994) rotate(0 200.45076558601085 108.8702684078165)"><path d="M260.56 252.6 C254.98 257.76, 247.12 262.43, 236.19 267.91 M262.14 251.05 C251.13 257.45, 242.28 264.39, 235.63 269.22" stroke="#1971c2" stroke-width="2" fill="none"></path></g><g transform="translate(605.0697806487922 994) rotate(0 200.45076558601085 108.8702684078165)"><path d="M265.64 272.48 C258.96 272.67, 249.82 272.32, 236.19 267.91 M267.21 270.93 C254.25 269.9, 243.5 269.43, 235.63 269.22" stroke="#1971c2" stroke-width="2" fill="none"></path></g></g><mask></mask><g stroke-linecap="round"><g transform="translate(610.0697806487922 983) rotate(0 208.36469719889163 146.05439177578126)"><path d="M-0.96 -0.93 C-0.93 -0.93, -15.6 3.85, -0.07 -0.06 C15.47 -3.98, 37.02 -14.4, 92.23 -24.42 C147.43 -34.44, 275.94 -63.46, 331.17 -60.17 C386.4 -56.88, 418.74 -60.37, 423.62 -4.68 C428.5 51, 394.88 214.67, 360.45 273.93 C326.01 333.18, 240.76 337.86, 217.01 350.84 M0.73 1.19 C0.62 1.41, -16.19 5.53, -1.05 1.44 C14.09 -2.65, 36.25 -13.23, 91.58 -23.33 C146.92 -33.43, 275.83 -62.27, 330.98 -59.16 C386.13 -56.05, 417.38 -59.99, 422.48 -4.65 C427.58 50.68, 395.79 213.31, 361.57 272.85 C327.34 332.38, 241.24 339.46, 217.13 352.54" stroke="#1971c2" stroke-width="2" fill="none"></path></g><g transform="translate(610.0697806487922 983) rotate(0 208.36469719889163 146.05439177578126)"><path d="M239.1 333.82 C233.93 339.35, 226.72 342.8, 216.84 353.58 M239.83 332.96 C234.83 338.25, 229.97 343.19, 216.76 352.96" stroke="#1971c2" stroke-width="2" fill="none"></path></g><g transform="translate(610.0697806487922 983) rotate(0 208.36469719889163 146.05439177578126)"><path d="M245.56 353.29 C238.59 353.3, 229.57 351.29, 216.84 353.58 M246.29 352.43 C239.81 352.99, 233.38 353.2, 216.76 352.96" stroke="#1971c2" stroke-width="2" fill="none"></path></g></g><mask></mask><g stroke-linecap="round" transform="translate(656.0697806487922 1371) rotate(0 86.5 38.5)"><path d="M108.75 9.75 M108.75 9.75 C121.03 14.67, 133.66 18.72, 151.25 29.25 M108.75 9.75 C124.28 15.85, 140.38 24.69, 151.25 29.25 M151.25 29.25 C174.25 40.16, 171.34 38.42, 151.25 48.75 M151.25 29.25 C174.12 36.83, 171.09 40, 151.25 48.75 M151.25 48.75 C134.79 55.23, 120.27 63.04, 108.75 67.25 M151.25 48.75 C134.2 55.44, 118.92 62.08, 108.75 67.25 M108.75 67.25 C86.21 77.96, 88.06 77.19, 65.25 67.25 M108.75 67.25 C89.06 79.24, 84.89 77.47, 65.25 67.25 M65.25 67.25 C57.1 63.1, 48.07 57.44, 21.75 48.75 M65.25 67.25 C51.17 62.21, 36.51 55.95, 21.75 48.75 M21.75 48.75 C1.89 37.53, 0.36 40.5, 21.75 29.25 M21.75 48.75 C-1.62 40.09, 0.17 37.1, 21.75 29.25 M21.75 29.25 C40.18 20.03, 54.68 13.95, 65.25 9.75 M21.75 29.25 C34.3 23.32, 46.35 18.3, 65.25 9.75 M65.25 9.75 C88.92 -0.06, 85.41 1.05, 108.75 9.75 M65.25 9.75 C85.61 0.77, 87.82 0.39, 108.75 9.75" stroke="#000000" stroke-width="1" fill="none"></path></g><g transform="translate(713.0898154388312 1397.25) rotate(0 29.729965209960938 12.5)"><text x="29.729965209960938" y="0" font-family="Virgil, Segoe UI Emoji" font-size="20px" fill="#000000" text-anchor="middle" style="white-space: pre;" direction="ltr" dominant-baseline="text-before-edge">Notas</text></g><g stroke-linecap="round"><g transform="translate(679.0697806487922 1392) rotate(0 -63.423684136075906 -90.36907749027014)"><path d="M-0.45 0.42 C-21.87 -29.85, -106.51 -151.22, -127.61 -181.16 M1.51 -0.4 C-20.11 -30.62, -106.88 -150.11, -128.36 -180.23" stroke="#e03131" stroke-width="2" fill="none"></path></g><g transform="translate(679.0697806487922 1392) rotate(0 -63.423684136075906 -90.36907749027014)"><path d="M-102.85 -162.71 C-114.84 -168.21, -120.89 -177.1, -127.08 -178.37 M-103.66 -162.63 C-111.33 -170.04, -119.19 -175.42, -128.76 -181.1" stroke="#e03131" stroke-width="2" fill="none"></path></g><g transform="translate(679.0697806487922 1392) rotate(0 -63.423684136075906 -90.36907749027014)"><path d="M-119.5 -150.71 C-125.3 -160.64, -125.12 -174.03, -127.08 -178.37 M-120.31 -150.64 C-122.63 -161.87, -125.03 -171.18, -128.76 -181.1" stroke="#e03131" stroke-width="2" fill="none"></path></g></g><mask></mask><g stroke-linecap="round"><g transform="translate(603.0697806487922 1004) rotate(0 236.5606947011304 155.2875662238961)"><path d="M-0.9 -1.14 C5.68 -7.95, -22.08 -24.79, 38.7 -40.75 C99.47 -56.7, 291.08 -101.8, 363.77 -96.87 C436.45 -91.94, 474.07 -85.09, 474.81 -11.16 C475.54 62.77, 409.34 276.87, 368.19 346.7 C327.04 416.53, 251.38 397.91, 227.91 407.82 M0.83 0.87 C7.29 -6.32, -22.75 -26.68, 37.59 -42.74 C97.93 -58.8, 290.07 -100.92, 362.88 -95.49 C435.69 -90.06, 473.77 -83.96, 474.43 -10.14 C475.09 63.69, 407.68 277.9, 366.82 347.46 C325.96 417.02, 252.47 397.12, 229.27 407.21" stroke="#1971c2" stroke-width="2" fill="none"></path></g><g transform="translate(603.0697806487922 1004) rotate(0 236.5606947011304 155.2875662238961)"><path d="M253.99 392.88 C250.09 396.04, 243.64 397.68, 229.01 407.53 M255.34 392.68 C247.32 398.16, 237.3 403.84, 229.64 408.19" stroke="#1971c2" stroke-width="2" fill="none"></path></g><g transform="translate(603.0697806487922 1004) rotate(0 236.5606947011304 155.2875662238961)"><path d="M256.65 413.23 C252.11 411.6, 245.04 408.47, 229.01 407.53 M258 413.03 C249.04 411.23, 238.07 409.61, 229.64 408.19" stroke="#1971c2" stroke-width="2" fill="none"></path></g></g><mask></mask><g stroke-linecap="round" transform="translate(161.06978064879223 1072) rotate(0 109 30.5)"><path d="M15.25 0 M15.25 0 C70.06 -2.66, 125.23 0.58, 202.75 0 M15.25 0 C67.37 0.17, 120.61 -0.56, 202.75 0 M202.75 0 C214.01 -1.96, 217.65 6.24, 218 15.25 M202.75 0 C213.66 -1.23, 216 7.17, 218 15.25 M218 15.25 C218.22 27.55, 217.47 37.93, 218 45.75 M218 15.25 C217.1 22.1, 217.4 27.39, 218 45.75 M218 45.75 C217.65 55.42, 212.19 59.76, 202.75 61 M218 45.75 C217.94 56.44, 214.83 62.25, 202.75 61 M202.75 61 C137.65 58.88, 71.67 59.26, 15.25 61 M202.75 61 C134.63 59.85, 66.2 60.81, 15.25 61 M15.25 61 C3.14 61.7, -1.98 56.04, 0 45.75 M15.25 61 C6.52 61.88, -1.96 56.44, 0 45.75 M0 45.75 C0.87 36.75, -1.91 31.04, 0 15.25 M0 45.75 C-0.1 34.48, 0.12 21.75, 0 15.25 M0 15.25 C-1.81 5.42, 3.72 -0.05, 15.25 0 M0 15.25 C0.49 3.17, 6.7 2.19, 15.25 0" stroke="#000000" stroke-width="1" fill="none"></path></g><g transform="translate(186.88987952574536 1090) rotate(0 83.17990112304688 12.5)"><text x="83.17990112304688" y="0" font-family="Virgil, Segoe UI Emoji" font-size="20px" fill="#000000" text-anchor="middle" style="white-space: pre;" direction="ltr" dominant-baseline="text-before-edge">Turnos/Guardias</text></g><g stroke-linecap="round"><g transform="translate(410.06978064879223 985) rotate(0 -156.93254042443448 61.29835027854633)"><path d="M-0.29 0.56 C-43.67 6.83, -206.71 18.84, -259.14 38 C-311.58 57.15, -314.99 101.8, -314.89 115.48 C-314.8 129.17, -267.91 119.28, -258.58 120.13 M1.76 -0.2 C-41.89 6.25, -207.27 20.6, -260.16 39.53 C-313.06 58.46, -315.94 99.86, -315.6 113.4 C-315.27 126.94, -267.38 119.55, -258.17 120.77" stroke="#1971c2" stroke-width="2" fill="none"></path></g><g transform="translate(410.06978064879223 985) rotate(0 -156.93254042443448 61.29835027854633)"><path d="M-283.5 130.87 C-274.09 127.26, -262.91 123.51, -259.63 120.74 M-283.45 131.73 C-277.68 129.5, -270.2 124.87, -257.94 120.66" stroke="#1971c2" stroke-width="2" fill="none"></path></g><g transform="translate(410.06978064879223 985) rotate(0 -156.93254042443448 61.29835027854633)"><path d="M-284 111.58 C-274.34 115.59, -262.95 119.47, -259.63 120.74 M-283.96 112.44 C-278.2 115.32, -270.58 115.79, -257.94 120.66" stroke="#1971c2" stroke-width="2" fill="none"></path></g></g><mask></mask><g stroke-linecap="round"><g transform="translate(62.06978064879223 3355) rotate(0 468.44956258800767 -1.5674230670779252)"><path d="M-0.45 0.46 C141.63 -0.15, 702.2 -2.88, 853.24 -3.26 C1004.28 -3.65, 902.03 -2.03, 905.79 -1.85 C909.55 -1.67, 880.88 -2.25, 875.79 -2.19 M1.52 -0.35 C143.91 -0.81, 704.89 -1.32, 855.55 -1.86 C1006.2 -2.4, 901.96 -3.7, 905.44 -3.58 C908.93 -3.47, 881.71 -1.65, 876.45 -1.18" stroke="#000000" stroke-width="4" fill="none"></path></g></g><mask></mask><g transform="translate(258.06978064879223 2672) rotate(0 262.6932373046875 49.810555604890055)"><text x="0" y="0" font-family="Virgil, Segoe UI Emoji" font-size="19.924222241956013px" fill="#000000" text-anchor="start" style="white-space: pre;" direction="ltr" dominant-baseline="text-before-edge">Todos estos documentos tienen una triple referencia:</text><text x="0" y="24.905277802445017" font-family="Virgil, Segoe UI Emoji" font-size="19.924222241956013px" fill="#000000" text-anchor="start" style="white-space: pre;" direction="ltr" dominant-baseline="text-before-edge">user_id, para el que los hace</text><text x="0" y="49.810555604890034" font-family="Virgil, Segoe UI Emoji" font-size="19.924222241956013px" fill="#000000" text-anchor="start" style="white-space: pre;" direction="ltr" dominant-baseline="text-before-edge">client_id, para el cliente.</text><text x="0" y="74.71583340733505" font-family="Virgil, Segoe UI Emoji" font-size="19.924222241956013px" fill="#000000" text-anchor="start" style="white-space: pre;" direction="ltr" dominant-baseline="text-before-edge">edition_id, para cada modificacion que se le haga.</text></g><g stroke-linecap="round"><g transform="translate(26.069780648792232 2846) rotate(0 506.39157191755714 -3.010207651555561)"><path d="M-0.02 0.42 C169.15 -0.66, 845.15 -5.21, 1014.27 -6.44 M-1.48 -0.4 C167.61 -1.33, 844.17 -4.18, 1013.46 -5.14" stroke="#000000" stroke-width="4" fill="none"></path></g></g><mask></mask><g transform="translate(319.06978064879223 2280) rotate(0 70.6499252319336 12.5)"><text x="0" y="0" font-family="Virgil, Segoe UI Emoji" font-size="20px" fill="#000000" text-anchor="start" style="white-space: pre;" direction="ltr" dominant-baseline="text-before-edge">Change Orders</text></g><g transform="translate(598.0697806487922 2276) rotate(0 29.729965209960938 12.5)"><text x="0" y="0" font-family="Virgil, Segoe UI Emoji" font-size="20px" fill="#000000" text-anchor="start" style="white-space: pre;" direction="ltr" dominant-baseline="text-before-edge">Notas</text></g><g stroke-linecap="round" transform="translate(201.06978064879223 2646) rotate(0 320.5 74)"><path d="M32 0 M32 0 C222.47 1.54, 411.49 2.31, 609 0 M32 0 C164.44 1.75, 296.7 2.49, 609 0 M609 0 C628.39 0.79, 640.67 10.31, 641 32 M609 0 C631.29 -2.15, 641.67 10.45, 641 32 M641 32 C639.98 57.73, 643.05 87, 641 116 M641 32 C641.24 50.87, 641.76 69.81, 641 116 M641 116 C640.09 135.45, 632.32 149.61, 609 148 M641 116 C641.74 138.34, 630.27 149.77, 609 148 M609 148 C395.44 146.08, 180.64 146.52, 32 148 M609 148 C406.94 149.16, 204.53 148.9, 32 148 M32 148 C10.21 149.18, 0.85 138.78, 0 116 M32 148 C12.7 148.75, 1.99 139.33, 0 116 M0 116 C-1.92 93.02, -0.03 73.62, 0 32 M0 116 C-1.02 93.91, -0.82 70.59, 0 32 M0 32 C1.93 8.72, 10.34 -0.75, 32 0 M0 32 C0.83 12.17, 10.45 -0.27, 32 0" stroke="#e03131" stroke-width="1" fill="none"></path></g><g stroke-linecap="round" transform="translate(171.06978064879223 2321) rotate(0 346.5 145)"><path d="M32 0 M32 0 C157.6 0, 284.01 0.47, 661 0 M32 0 C267.1 1.75, 501.91 1.48, 661 0 M661 0 C683.55 1.19, 693.64 9.21, 693 32 M661 0 C681.62 1.83, 693.57 9.74, 693 32 M693 32 C694.82 104.05, 692.54 178.74, 693 258 M693 32 C693.49 79.35, 693.39 126.03, 693 258 M693 258 C691.32 279.02, 682.6 291.42, 661 290 M693 258 C695.1 277.45, 681.06 290.76, 661 290 M661 290 C517.92 291.11, 374.92 289.86, 32 290 M661 290 C491.31 290.37, 322.26 289.74, 32 290 M32 290 C11.33 288.99, -1.67 280.02, 0 258 M32 290 C12.03 291.36, 1.37 280.15, 0 258 M0 258 C-1.25 199.87, 0.33 138.78, 0 32 M0 258 C2.41 180.47, 1.12 103.64, 0 32 M0 32 C-0.31 12.43, 9.69 -0.65, 32 0 M0 32 C-2.13 12.63, 11.06 -0.16, 32 0" stroke="#1e1e1e" stroke-width="1" fill="none"></path></g><g transform="translate(195.06978064879223 2351) rotate(0 317.9696350097656 75)"><text x="0" y="0" font-family="Virgil, Segoe UI Emoji" font-size="20px" fill="#1e1e1e" text-anchor="start" style="white-space: pre;" direction="ltr" dominant-baseline="text-before-edge">Cada documento tiene su propia estructura y datos requeridos.</text><text x="0" y="25" font-family="Virgil, Segoe UI Emoji" font-size="20px" fill="#1e1e1e" text-anchor="start" style="white-space: pre;" direction="ltr" dominant-baseline="text-before-edge">por esa razón, cada uno debe tener campos que se completan</text><text x="0" y="50" font-family="Virgil, Segoe UI Emoji" font-size="20px" fill="#1e1e1e" text-anchor="start" style="white-space: pre;" direction="ltr" dominant-baseline="text-before-edge">manualmente.</text><text x="0" y="75" font-family="Virgil, Segoe UI Emoji" font-size="20px" fill="#1e1e1e" text-anchor="start" style="white-space: pre;" direction="ltr" dominant-baseline="text-before-edge"></text><text x="0" y="100" font-family="Virgil, Segoe UI Emoji" font-size="20px" fill="#1e1e1e" text-anchor="start" style="white-space: pre;" direction="ltr" dominant-baseline="text-before-edge">Los demas se llenan de forma automatica enlazando esta app</text><text x="0" y="125" font-family="Virgil, Segoe UI Emoji" font-size="20px" fill="#1e1e1e" text-anchor="start" style="white-space: pre;" direction="ltr" dominant-baseline="text-before-edge">con la api de goforms.</text></g><g transform="translate(313.06978064879223 136) rotate(0 160.90203857421875 22.5)"><text x="0" y="0" font-family="Virgil, Segoe UI Emoji" font-size="36px" fill="#1e1e1e" text-anchor="start" style="white-space: pre;" direction="ltr" dominant-baseline="text-before-edge">Ruby On Rails app</text></g><g transform="translate(319.06978064879223 358) rotate(0 161.1900634765625 22.5)"><text x="0" y="0" font-family="Virgil, Segoe UI Emoji" font-size="36px" fill="#1e1e1e" text-anchor="start" style="white-space: pre;" direction="ltr" dominant-baseline="text-before-edge">Heroku Deployment</text></g><g stroke-linecap="round" transform="translate(260.06978064879223 10) rotate(0 214.5 147)"><path d="M268.75 37 M268.75 37 C309.06 62.74, 346.08 90.55, 375.25 111 M268.75 37 C307.61 65.63, 344.52 91.7, 375.25 111 M375.25 111 C427.72 147.73, 427.87 149.12, 375.25 185 M375.25 111 C427.61 149.06, 428.32 148.87, 375.25 185 M375.25 185 C342.31 204.46, 312.43 224.94, 268.75 257 M375.25 185 C340.4 208.58, 303.68 233.92, 268.75 257 M268.75 257 C213.01 295.86, 214.3 292.23, 161.25 257 M268.75 257 C213.04 296.05, 216.1 293.06, 161.25 257 M161.25 257 C123.61 231.8, 81.66 204.91, 53.75 185 M161.25 257 C133.6 236.98, 103.43 216.89, 53.75 185 M53.75 185 C1.57 147.33, 0.75 148.35, 53.75 111 M53.75 185 C-0.51 148.76, 0.35 148.85, 53.75 111 M53.75 111 C80.35 91.6, 106.08 73.59, 161.25 37 M53.75 111 C95.51 81.7, 137.31 54.31, 161.25 37 M161.25 37 C214.02 -1.49, 214.81 -0.05, 268.75 37 M161.25 37 C217.25 0.45, 214.23 -1.28, 268.75 37" stroke="#e03131" stroke-width="4" fill="none"></path></g><g stroke-linecap="round"><g transform="translate(265.06978064879223 331) rotate(0 221.3583434077073 -3.118870304524876)"><path d="M1.03 -0.1 C74.22 -1.21, 367.09 -5.24, 440.28 -6.14 M0.11 -1.2 C73.6 -2.16, 368.86 -3.61, 442.61 -4.67" stroke="#9c36b5" stroke-width="4" fill="none"></path></g></g><mask></mask><g stroke-linecap="round"><g transform="translate(260.06978064879223 420) rotate(0 230.92607716015075 -0.7094023634353448)"><path d="M0.8 -0.6 C77.7 -0.98, 385.11 -2.77, 462.09 -3.12 M-0.24 1.7 C76.45 1.49, 384.1 -1.59, 461.2 -2.17" stroke="#9c36b5" stroke-width="4" fill="none"></path></g></g><mask></mask><g stroke-linecap="round"><g transform="translate(480.06978064879223 475) rotate(0 1.5018767103552477 99.81670613165014)"><path d="M-0.43 -0.24 C0.09 33.11, 3.01 166.63, 3.43 200.02 M1.55 -1.41 C1.92 32.06, 2.21 167.32, 2.71 201.05" stroke="#9c36b5" stroke-width="4" fill="none"></path></g><g transform="translate(480.06978064879223 475) rotate(0 1.5018767103552477 99.81670613165014)"><path d="M-8.17 173.66 C-5.99 180.71, -2.43 191.51, 2.96 202.39 M-7.7 173.65 C-4.88 179.73, -3.28 187.79, 3.18 201.66" stroke="#9c36b5" stroke-width="4" fill="none"></path></g><g transform="translate(480.06978064879223 475) rotate(0 1.5018767103552477 99.81670613165014)"><path d="M12.35 173.5 C7.83 180.53, 4.68 191.38, 2.96 202.39 M12.82 173.49 C10.43 179.5, 6.82 187.6, 3.18 201.66" stroke="#9c36b5" stroke-width="4" fill="none"></path></g></g><mask></mask><g transform="translate(404.06978064879223 3399) rotate(0 89.02803039550781 22.5)"><text x="0" y="0" font-family="Virgil, Segoe UI Emoji" font-size="36px" fill="#1e1e1e" text-anchor="start" style="white-space: pre;" direction="ltr" dominant-baseline="text-before-edge">Productos</text></g><g stroke-linecap="round" transform="translate(206.06978064879223 3475) rotate(0 314 132)"><path d="M32 0 M32 0 C221.34 1.3, 409.65 0.52, 596 0 M32 0 C214.25 1.55, 397.12 1.64, 596 0 M596 0 C615.58 -1.16, 626.79 9.47, 628 32 M596 0 C617.49 0.5, 629.1 12.94, 628 32 M628 32 C627.94 85.96, 627.22 134.54, 628 232 M628 32 C628.4 101.58, 628.51 171.54, 628 232 M628 232 C627.54 252.51, 618.26 265.66, 596 264 M628 232 C626.88 254.49, 618.13 262.01, 596 264 M596 264 C468.92 263.62, 343.17 264.54, 32 264 M596 264 C446.7 265.27, 296.9 264.9, 32 264 M32 264 C9.35 262.92, -0.23 254.14, 0 232 M32 264 C10.05 262.94, 1.86 255.49, 0 232 M0 232 C1.7 169.23, 2.75 106.19, 0 32 M0 232 C1.19 177.84, 1.37 122.39, 0 32 M0 32 C1.91 9.51, 12.65 1.37, 32 0 M0 32 C-0.6 10.96, 8.39 1, 32 0" stroke="#1e1e1e" stroke-width="2" fill="none"></path></g><g transform="translate(267.06978064879223 3486) rotate(0 243.59976196289062 75)"><text x="0" y="0" font-family="Virgil, Segoe UI Emoji" font-size="20px" fill="#1e1e1e" text-anchor="start" style="white-space: pre;" direction="ltr" dominant-baseline="text-before-edge">Id</text><text x="0" y="25" font-family="Virgil, Segoe UI Emoji" font-size="20px" fill="#1e1e1e" text-anchor="start" style="white-space: pre;" direction="ltr" dominant-baseline="text-before-edge">Name</text><text x="0" y="50" font-family="Virgil, Segoe UI Emoji" font-size="20px" fill="#1e1e1e" text-anchor="start" style="white-space: pre;" direction="ltr" dominant-baseline="text-before-edge">Type</text><text x="0" y="75" font-family="Virgil, Segoe UI Emoji" font-size="20px" fill="#1e1e1e" text-anchor="start" style="white-space: pre;" direction="ltr" dominant-baseline="text-before-edge">Brand</text><text x="0" y="100" font-family="Virgil, Segoe UI Emoji" font-size="20px" fill="#1e1e1e" text-anchor="start" style="white-space: pre;" direction="ltr" dominant-baseline="text-before-edge">PriceModifier= {one: 1, two: -2000, three: -2000,</text><text x="0" y="125" font-family="Virgil, Segoe UI Emoji" font-size="20px" fill="#1e1e1e" text-anchor="start" style="white-space: pre;" direction="ltr" dominant-baseline="text-before-edge"> four: -1000, credit:XXXX} (This is a hash)</text></g><g stroke-linecap="round"><g transform="translate(35.06978064879223 3754) rotate(0 519.1418563071638 0.13180177140975502)"><path d="M-0.65 -0.91 C172.38 -1.1, 865.89 -0.78, 1038.93 -0.8 M1.21 1.23 C174.09 1.15, 865.91 0.56, 1038.47 0.31" stroke="#1e1e1e" stroke-width="4" fill="none"></path></g></g><mask></mask><g stroke-linecap="round"><g transform="translate(236.06978064879223 3635) rotate(0 285.6432288326882 0.5301961478114663)"><path d="M0.21 -0.62 C95.42 -0.22, 475.17 1.3, 570.16 1.37 M-1.15 1.67 C94.54 1.79, 476.81 -0.37, 572.43 -0.56" stroke="#e03131" stroke-width="1" fill="none"></path></g></g><mask></mask><g transform="translate(328.06978064879223 3690) rotate(0 223.1397705078125 12.5)"><text x="0" y="0" font-family="Virgil, Segoe UI Emoji" font-size="20px" fill="#e03131" text-anchor="start" style="white-space: pre;" direction="ltr" dominant-baseline="text-before-edge">after_update: :create_edition(current_user)</text></g><g transform="translate(331.06978064879223 3659) rotate(0 167.65982055664062 12.5)"><text x="0" y="0" font-family="Virgil, Segoe UI Emoji" font-size="20px" fill="#2f9e44" text-anchor="start" style="white-space: pre;" direction="ltr" dominant-baseline="text-before-edge">before_update: :create_snapShot</text></g><g transform="translate(247.49084326763534 3673.31785662982) rotate(270.56547556339956 37.226646423339844 8.67533759411026)"><text x="0" y="0" font-family="Virgil, Segoe UI Emoji" font-size="13.88054015057642px" fill="#1971c2" text-anchor="start" style="white-space: pre;" direction="ltr" dominant-baseline="text-before-edge">Callbacks...</text></g><g stroke-linecap="round"><g transform="translate(221.06978064879223 3238) rotate(0 301.68390379639345 -0.7898442930170404)"><path d="M0.12 -0.96 C100.9 -1.25, 503.85 -2.69, 604.65 -2.73 M-1.28 1.15 C99.32 1.09, 502.62 -0.87, 603.51 -1.58" stroke="#e03131" stroke-width="1" fill="none"></path></g></g><mask></mask><g transform="translate(342.1273127065969 3295.0216080373434) rotate(0 223.1397705078125 12.5)"><text x="0" y="0" font-family="Virgil, Segoe UI Emoji" font-size="20px" fill="#e03131" text-anchor="start" style="white-space: pre;" direction="ltr" dominant-baseline="text-before-edge">after_update: :create_edition(current_user)</text></g><g transform="translate(345.1273127065969 3264.0216080373434) rotate(0 167.65982055664062 12.5)"><text x="0" y="0" font-family="Virgil, Segoe UI Emoji" font-size="20px" fill="#2f9e44" text-anchor="start" style="white-space: pre;" direction="ltr" dominant-baseline="text-before-edge">before_update: :create_snapShot</text></g><g transform="translate(261.54837532544 3278.339464667164) rotate(270.56547556339956 37.226646423339844 8.67533759411026)"><text x="0" y="0" font-family="Virgil, Segoe UI Emoji" font-size="13.88054015057642px" fill="#1971c2" text-anchor="start" style="white-space: pre;" direction="ltr" dominant-baseline="text-before-edge">Callbacks...</text></g></svg>