<svg version="1.1" xmlns="http://www.w3.org/2000/svg" viewBox="0 0 1087.8838546809448 3816.231661087964" width="1087.8838546809448" height="3816.231661087964" filter="invert(93%) hue-rotate(180deg)">
  <!-- svg-source:excalidraw -->
  
  <defs>
    <style class="style-fonts">
      @font-face {
        font-family: "Virgil";
        src: url("https://excalidraw.com/Virgil.woff2");
      }
      @font-face {
        font-family: "Cascadia";
        src: url("https://excalidraw.com/Cascadia.woff2");
      }
    </style>
    
  </defs>
  <rect x="0" y="0" width="1087.8838546809448" height="3816.231661087964" fill="#ffffff"></rect><g transform="translate(453.06978064879223 1150) rotate(0 58.149940490722656 12.5)"><text x="0" y="0" font-family="Virgil, Segoe UI Emoji" font-size="20px" fill="#000000" text-anchor="start" style="white-space: pre;" direction="ltr" dominant-baseline="text-before-edge">Client-Model</text></g><g stroke-linecap="round" transform="translate(658.0697806487922 1063) rotate(0 78 30)"><path d="M15 0 M15 0 C52.01 -0.21, 87.13 1.04, 141 0 M15 0 C50.31 -0.87, 87.96 -1.18, 141 0 M141 0 C151.85 -1.36, 155.24 6.48, 156 15 M141 0 C153.27 1.41, 157.6 7.26, 156 15 M156 15 C155.3 23.05, 156.37 27.07, 156 45 M156 15 C155.42 25.38, 156.46 36.7, 156 45 M156 45 C156.3 54.26, 152.94 59.84, 141 60 M156 45 C155.21 56.43, 149.37 59.83, 141 60 M141 60 C104.22 57.96, 65.58 61.44, 15 60 M141 60 C93.21 62.01, 45.93 61.07, 15 60 M15 60 C5.03 59, -0.86 55.37, 0 45 M15 60 C6.89 61.81, -1.4 55.06, 0 45 M0 45 C1.46 34.67, -1.7 21.05, 0 15 M0 45 C-0.67 33.87, -0.46 22.75, 0 15 M0 15 C-0.19 6.69, 5.36 -1.74, 15 0 M0 15 C0.01 6.19, 3.06 1.43, 15 0" stroke="#000000" stroke-width="1" fill="none"></path></g><g transform="translate(688.9798377166633 1068) rotate(0 47.089942932128906 25)"><text x="47.089942932128906" y="0" font-family="Virgil, Segoe UI Emoji" font-size="20px" fill="#000000" text-anchor="middle" style="white-space: pre;" direction="ltr" dominant-baseline="text-before-edge">Lista de </text><text x="47.089942932128906" y="25" font-family="Virgil, Segoe UI Emoji" font-size="20px" fill="#000000" text-anchor="middle" style="white-space: pre;" direction="ltr" dominant-baseline="text-before-edge">precios</text></g><g stroke-linecap="round" transform="translate(653.0697806487922 1150) rotate(0 80.5 30)"><path d="M15 0 M15 0 C56.12 -1.96, 98.8 -2.69, 146 0 M15 0 C53.22 0.76, 90.7 0.72, 146 0 M146 0 C157.58 1.54, 160.96 6.95, 161 15 M146 0 C155.31 1.8, 160.78 4.64, 161 15 M161 15 C161.22 25.69, 162.43 31.89, 161 45 M161 15 C160.76 24.79, 161.92 32.29, 161 45 M161 45 C160.34 56.75, 156.6 60.94, 146 60 M161 45 C159.66 56.14, 155.16 62.29, 146 60 M146 60 C106.18 60.25, 70.87 58.55, 15 60 M146 60 C98 59.74, 52.03 59.95, 15 60 M15 60 C4.28 58.42, -0.19 53.02, 0 45 M15 60 C5.01 60.83, 1.91 55.2, 0 45 M0 45 C-2.05 36.04, -1.59 22.78, 0 15 M0 45 C0.65 34.51, -0.38 22.83, 0 15 M0 15 C-1.45 3.22, 5.02 -0.29, 15 0 M0 15 C-1.89 4.32, 4.05 1.45, 15 0" stroke="#000000" stroke-width="1" fill="none"></path></g><g transform="translate(671.4398444305305 1155) rotate(0 62.12993621826172 25)"><text x="62.12993621826172" y="0" font-family="Virgil, Segoe UI Emoji" font-size="20px" fill="#000000" text-anchor="middle" style="white-space: pre;" direction="ltr" dominant-baseline="text-before-edge">Documentos </text><text x="62.12993621826172" y="25" font-family="Virgil, Segoe UI Emoji" font-size="20px" fill="#000000" text-anchor="middle" style="white-space: pre;" direction="ltr" dominant-baseline="text-before-edge">generados</text></g><g stroke-linecap="round" transform="translate(667.0697806487922 1229) rotate(0 78 30)"><path d="M15 0 M15 0 C50.61 -0.89, 88.6 1.62, 141 0 M15 0 C63.62 -0.2, 109.96 0.67, 141 0 M141 0 C152.32 -1.76, 155.34 6.75, 156 15 M141 0 C151.69 1.08, 154.66 6.14, 156 15 M156 15 C157.99 23.26, 154.56 30.81, 156 45 M156 15 C156.01 24.95, 155.19 36.62, 156 45 M156 45 C157.84 56.45, 150.28 58.42, 141 60 M156 45 C155.78 52.72, 151.01 60.83, 141 60 M141 60 C94.69 62.62, 42.74 62.17, 15 60 M141 60 C111.56 59.82, 82.51 60.91, 15 60 M15 60 C4.32 58.4, -1.45 53.22, 0 45 M15 60 C5.02 59.67, -1.89 54.32, 0 45 M0 45 C-0.8 38.2, 0.61 28.67, 0 15 M0 45 C0.52 34.96, 0.85 27.35, 0 15 M0 15 C0.26 6.7, 3.42 0.12, 15 0 M0 15 C1.13 4.55, 4.88 1.74, 15 0" stroke="#000000" stroke-width="1" fill="none"></path></g><g transform="translate(693.6298468719367 1234) rotate(0 51.43993377685547 25)"><text x="51.43993377685547" y="0" font-family="Virgil, Segoe UI Emoji" font-size="20px" fill="#000000" text-anchor="middle" style="white-space: pre;" direction="ltr" dominant-baseline="text-before-edge">Ediciones </text><text x="51.43993377685547" y="25" font-family="Virgil, Segoe UI Emoji" font-size="20px" fill="#000000" text-anchor="middle" style="white-space: pre;" direction="ltr" dominant-baseline="text-before-edge">realizadas</text></g><g stroke-linecap="round" transform="translate(668.0697806487922 1319) rotate(0 78 17.5)"><path d="M8.75 0 M8.75 0 C46.91 0.49, 79.94 0.14, 147.25 0 M8.75 0 C57.71 -1.46, 105.59 -0.34, 147.25 0 M147.25 0 C154.93 1.45, 155.28 1.34, 156 8.75 M147.25 0 C152.87 -2.28, 156.01 3.74, 156 8.75 M156 8.75 C157.71 17.19, 154.47 23.5, 156 26.25 M156 8.75 C156.03 12.09, 156.51 17.14, 156 26.25 M156 26.25 C155.32 30.49, 151.64 33.22, 147.25 35 M156 26.25 C156.02 31.75, 151.2 34.32, 147.25 35 M147.25 35 C110.78 36.17, 76.34 34.4, 8.75 35 M147.25 35 C104.95 33.37, 62.32 35.06, 8.75 35 M8.75 35 C3.17 36.7, -1.58 32.2, 0 26.25 M8.75 35 C4.04 34.55, -0.12 33.82, 0 26.25 M0 26.25 C0.77 21.65, 0.38 17.36, 0 8.75 M0 26.25 C0.98 20.43, -0.08 16.32, 0 8.75 M0 8.75 C-0.29 2.64, 4.87 1.62, 8.75 0 M0 8.75 C1.77 3.59, 1.74 -0.56, 8.75 0" stroke="#000000" stroke-width="1" fill="none"></path></g><g transform="translate(675.4198554168586 1324) rotate(0 70.6499252319336 12.5)"><text x="70.6499252319336" y="0" font-family="Virgil, Segoe UI Emoji" font-size="20px" fill="#000000" text-anchor="middle" style="white-space: pre;" direction="ltr" dominant-baseline="text-before-edge">Change Orders</text></g><g stroke-linecap="round" transform="translate(142.06978064879223 1161) rotate(0 91 28)"><path d="M14 0 M14 0 C74.24 1.7, 132.1 -0.54, 168 0 M14 0 C58.63 1.14, 103.21 -0.11, 168 0 M168 0 C176.74 -0.25, 183.88 4.71, 182 14 M168 0 C176.13 0.91, 183.68 6.21, 182 14 M182 14 C182.87 23.87, 182.82 32.44, 182 42 M182 14 C181.78 22.5, 182.77 29.74, 182 42 M182 42 C181.24 52.92, 178.36 55.82, 168 56 M182 42 C181.57 50.02, 178.73 56.96, 168 56 M168 56 C131.6 58.05, 98.01 58.01, 14 56 M168 56 C128.09 56.15, 87.73 56.71, 14 56 M14 56 C3.82 56.52, 0.07 53.22, 0 42 M14 56 C5.61 54.84, -2.17 53.09, 0 42 M0 42 C-2.1 30.89, -0.12 23.56, 0 14 M0 42 C0.58 31.39, -0.68 23.54, 0 14 M0 14 C0.1 5.08, 3.92 -0.04, 14 0 M0 14 C2.02 5.86, 2.54 1.88, 14 0" stroke="#000000" stroke-width="1" fill="none"></path></g><g transform="translate(159.06978064879223 1177) rotate(0 73.05992126464844 12.5)"><text x="0" y="0" font-family="Virgil, Segoe UI Emoji" font-size="20px" fill="#000000" text-anchor="start" style="white-space: pre;" direction="ltr" dominant-baseline="text-before-edge">User::Consultor</text></g><g stroke-linecap="round"><g transform="translate(338.06978064879223 1172.7324059358803) rotate(0 47 -8.366202967940069)"><path d="M0 0.82 C16.05 -1.71, 79.39 -12.86, 95.19 -15.94 M-1.46 0.2 C14.63 -2.59, 78.88 -14.81, 94.87 -17.64" stroke="#e03131" stroke-width="2" fill="none"></path></g><g transform="translate(338.06978064879223 1172.7324059358803) rotate(0 47 -8.366202967940069)"><path d="M70.36 -0.45 C75.82 -4.25, 78.39 -8.04, 93.92 -18.73 M69.11 -1.74 C76.57 -7.28, 85.47 -13.21, 94.83 -17.06" stroke="#e03131" stroke-width="2" fill="none"></path></g><g transform="translate(338.06978064879223 1172.7324059358803) rotate(0 47 -8.366202967940069)"><path d="M66.65 -20.63 C72.74 -20.23, 76.09 -19.82, 93.92 -18.73 M65.39 -21.92 C74.23 -20.9, 84.34 -20.26, 94.83 -17.06" stroke="#e03131" stroke-width="2" fill="none"></path></g></g><mask></mask><g transform="translate(425.06978064879223 978) rotate(0 74.91991424560547 25)"><text x="0" y="0" font-family="Virgil, Segoe UI Emoji" font-size="20px" fill="#000000" text-anchor="start" style="white-space: pre;" direction="ltr" dominant-baseline="text-before-edge">User::Cotizador</text><text x="0" y="25" font-family="Virgil, Segoe UI Emoji" font-size="20px" fill="#000000" text-anchor="start" style="white-space: pre;" direction="ltr" dominant-baseline="text-before-edge">User::Ops</text></g><g stroke-linecap="round" transform="translate(414.06978064879223 969) rotate(0 90 36.5)"><path d="M18.25 0 M18.25 0 C51.75 -1.35, 81.13 0.89, 161.75 0 M18.25 0 C66.92 0.62, 116.96 -0.2, 161.75 0 M161.75 0 C173.11 -0.03, 178.12 7.99, 180 18.25 M161.75 0 C174.17 1.79, 179.91 6.28, 180 18.25 M180 18.25 C180.02 33.94, 180.95 44.15, 180 54.75 M180 18.25 C179.77 31.6, 180.26 45.33, 180 54.75 M180 54.75 C178.61 68.28, 175.74 71.87, 161.75 73 M180 54.75 C181.12 67.37, 174.84 71.84, 161.75 73 M161.75 73 C105.77 72.86, 50.63 75.8, 18.25 73 M161.75 73 C117.02 73.43, 71.24 74.44, 18.25 73 M18.25 73 C5.22 72.01, -0.68 68.85, 0 54.75 M18.25 73 C8.35 73.9, 1.6 68.25, 0 54.75 M0 54.75 C0 42.18, 1.54 26.37, 0 18.25 M0 54.75 C0.81 43.59, -0.26 32.41, 0 18.25 M0 18.25 C-1.97 7.09, 4.2 -1.95, 18.25 0 M0 18.25 C0.83 6.98, 7.21 0.11, 18.25 0" stroke="#000000" stroke-width="1" fill="none"></path></g><g stroke-linecap="round"><g transform="translate(500.5356085984692 1049) rotate(0 0.26708602516151814 34.5)"><path d="M1.13 0.17 C1.52 11.8, 1.7 58.64, 1.67 69.97 M0.27 -0.79 C0.65 10.51, 1.29 56.72, 1.32 68.35" stroke="#e03131" stroke-width="2" fill="none"></path></g><g transform="translate(500.5356085984692 1049) rotate(0 0.26708602516151814 34.5)"><path d="M-8.92 42.15 C-4.95 47.82, -5.41 53.38, 1.88 67.49 M-8.22 40.65 C-5.97 47.77, -3.34 55.03, 1.51 68.5" stroke="#e03131" stroke-width="2" fill="none"></path></g><g transform="translate(500.5356085984692 1049) rotate(0 0.26708602516151814 34.5)"><path d="M11.6 41.96 C10.49 47.87, 4.96 53.47, 1.88 67.49 M12.3 40.46 C9.41 47.83, 6.9 55.14, 1.51 68.5" stroke="#e03131" stroke-width="2" fill="none"></path></g></g><mask></mask><g stroke-linecap="round"><g transform="translate(507.06978064879223 1194) rotate(0 -1.5 45)"><path d="M-1.11 -0.21 C-1.54 14.91, -2.78 74.65, -3.1 89.87 M0.51 -1.36 C-0.04 14.01, -3.39 76.22, -4.11 91.34" stroke="#e03131" stroke-width="2" fill="none"></path></g></g><mask></mask><g transform="translate(456.06978064879223 1302) rotate(0 55.11993408203125 12.5)"><text x="0" y="0" font-family="Virgil, Segoe UI Emoji" font-size="20px" fill="#000000" text-anchor="start" style="white-space: pre;" direction="ltr" dominant-baseline="text-before-edge">Estructura</text></g><g stroke-linecap="round"><g transform="translate(504.06978064879223 1344) rotate(0 -1.5577037001812641 51.18674698795178)"><path d="M1.16 -0.4 C0.85 16.51, -1.47 83.94, -2.17 101.2 M0.31 -1.65 C-0.05 15.38, -1.95 84.97, -2.63 102.12" stroke="#e03131" stroke-width="2" fill="none"></path></g><g transform="translate(504.06978064879223 1344) rotate(0 -1.5577037001812641 51.18674698795178)"><path d="M-12.63 75.19 C-11.43 81.42, -5.55 89.31, -0.94 102.31 M-12.06 73.12 C-9.79 81.58, -7.25 89.62, -3.56 102.56" stroke="#e03131" stroke-width="2" fill="none"></path></g><g transform="translate(504.06978064879223 1344) rotate(0 -1.5577037001812641 51.18674698795178)"><path d="M7.88 75.85 C3.48 82.1, 3.76 89.81, -0.94 102.31 M8.45 73.78 C5.29 82.04, 2.4 89.91, -3.56 102.56" stroke="#e03131" stroke-width="2" fill="none"></path></g></g><mask></mask><g transform="translate(223.06978064879223 1467) rotate(0 252.25970458984375 200)"><text x="0" y="0" font-family="Virgil, Segoe UI Emoji" font-size="20px" fill="#000000" text-anchor="start" style="white-space: pre;" direction="ltr" dominant-baseline="text-before-edge">ID</text><text x="0" y="25" font-family="Virgil, Segoe UI Emoji" font-size="20px" fill="#000000" text-anchor="start" style="white-space: pre;" direction="ltr" dominant-baseline="text-before-edge">Nombre</text><text x="0" y="50" font-family="Virgil, Segoe UI Emoji" font-size="20px" fill="#000000" text-anchor="start" style="white-space: pre;" direction="ltr" dominant-baseline="text-before-edge">Apellido</text><text x="0" y="75" font-family="Virgil, Segoe UI Emoji" font-size="20px" fill="#000000" text-anchor="start" style="white-space: pre;" direction="ltr" dominant-baseline="text-before-edge">Telefono</text><text x="0" y="100" font-family="Virgil, Segoe UI Emoji" font-size="20px" fill="#000000" text-anchor="start" style="white-space: pre;" direction="ltr" dominant-baseline="text-before-edge">Correo</text><text x="0" y="125" font-family="Virgil, Segoe UI Emoji" font-size="20px" fill="#000000" text-anchor="start" style="white-space: pre;" direction="ltr" dominant-baseline="text-before-edge">SSN</text><text x="0" y="150" font-family="Virgil, Segoe UI Emoji" font-size="20px" fill="#000000" text-anchor="start" style="white-space: pre;" direction="ltr" dominant-baseline="text-before-edge">Fecha de nacimiento</text><text x="0" y="175" font-family="Virgil, Segoe UI Emoji" font-size="20px" fill="#000000" text-anchor="start" style="white-space: pre;" direction="ltr" dominant-baseline="text-before-edge">consultor_id</text><text x="0" y="200" font-family="Virgil, Segoe UI Emoji" font-size="20px" fill="#000000" text-anchor="start" style="white-space: pre;" direction="ltr" dominant-baseline="text-before-edge">cotizador_id</text><text x="0" y="225" font-family="Virgil, Segoe UI Emoji" font-size="20px" fill="#000000" text-anchor="start" style="white-space: pre;" direction="ltr" dominant-baseline="text-before-edge">cotizadores=[cotizador1, cotizador2, cotizador3...]</text><text x="0" y="250" font-family="Virgil, Segoe UI Emoji" font-size="20px" fill="#000000" text-anchor="start" style="white-space: pre;" direction="ltr" dominant-baseline="text-before-edge">financiera:</text><text x="0" y="275" font-family="Virgil, Segoe UI Emoji" font-size="20px" fill="#000000" text-anchor="start" style="white-space: pre;" direction="ltr" dominant-baseline="text-before-edge">Tipo de solicitud:</text><text x="0" y="300" font-family="Virgil, Segoe UI Emoji" font-size="20px" fill="#000000" text-anchor="start" style="white-space: pre;" direction="ltr" dominant-baseline="text-before-edge">Bono</text><text x="0" y="325" font-family="Virgil, Segoe UI Emoji" font-size="20px" fill="#000000" text-anchor="start" style="white-space: pre;" direction="ltr" dominant-baseline="text-before-edge">referido_id</text><text x="0" y="350" font-family="Virgil, Segoe UI Emoji" font-size="20px" fill="#000000" text-anchor="start" style="white-space: pre;" direction="ltr" dominant-baseline="text-before-edge"></text><text x="0" y="375" font-family="Virgil, Segoe UI Emoji" font-size="20px" fill="#000000" text-anchor="start" style="white-space: pre;" direction="ltr" dominant-baseline="text-before-edge"></text></g><g stroke-linecap="round"><g transform="translate(648.0697806487922 1090) rotate(0 -24.5 17.5)"><path d="M-1.07 0.97 C-9.03 6.78, -40.73 29.97, -48.92 35.6 M0.57 0.43 C-7.44 5.82, -41.74 27.87, -49.82 33.8" stroke="#e03131" stroke-width="2" fill="none"></path></g><g transform="translate(648.0697806487922 1090) rotate(0 -24.5 17.5)"><path d="M-30.67 9.59 C-34.71 12.32, -39.66 17.88, -50.22 32.12 M-32.03 9.11 C-37.45 16.47, -41.54 22.44, -48.95 34.18" stroke="#e03131" stroke-width="2" fill="none"></path></g><g transform="translate(648.0697806487922 1090) rotate(0 -24.5 17.5)"><path d="M-19.13 26.56 C-25.62 25.72, -32.93 27.83, -50.22 32.12 M-20.49 26.08 C-29.24 28.48, -36.63 29.61, -48.95 34.18" stroke="#e03131" stroke-width="2" fill="none"></path></g></g><mask></mask><g stroke-linecap="round"><g transform="translate(654.0697806487922 1179) rotate(0 -32 -6)"><path d="M1.04 0.47 C-9.63 -1.39, -52.31 -10.02, -63.18 -12.08 M0.13 -0.33 C-10.71 -1.92, -52.84 -8.88, -63.69 -10.58" stroke="#e03131" stroke-width="2" fill="none"></path></g><g transform="translate(654.0697806487922 1179) rotate(0 -32 -6)"><path d="M-33.45 -14.85 C-45.37 -14.14, -56.02 -11.87, -62.88 -8.69 M-34.29 -15.6 C-40.5 -15.02, -46.41 -14.63, -62.85 -9.95" stroke="#e03131" stroke-width="2" fill="none"></path></g><g transform="translate(654.0697806487922 1179) rotate(0 -32 -6)"><path d="M-36.71 5.41 C-47.26 -1.45, -56.7 -6.72, -62.88 -8.69 M-37.55 4.66 C-43.07 0.9, -48.28 -3.02, -62.85 -9.95" stroke="#e03131" stroke-width="2" fill="none"></path></g></g><mask></mask><g stroke-linecap="round"><g transform="translate(653.0697806487922 1241.0432240221257) rotate(0 -39 -20.521612011062814)"><path d="M0.1 0.78 C-12.97 -5.83, -65.17 -33.63, -78.18 -40.7 M-1.31 0.14 C-14.57 -6.76, -66.32 -35.84, -79.22 -42.64" stroke="#e03131" stroke-width="2" fill="none"></path></g><g transform="translate(653.0697806487922 1241.0432240221257) rotate(0 -39 -20.521612011062814)"><path d="M-48.27 -38.42 C-58.41 -39.49, -69.47 -41.23, -78.95 -42.62 M-49.42 -38.75 C-58.49 -39.53, -66.8 -40.41, -78.95 -42.39" stroke="#e03131" stroke-width="2" fill="none"></path></g><g transform="translate(653.0697806487922 1241.0432240221257) rotate(0 -39 -20.521612011062814)"><path d="M-58.11 -20.42 C-64.96 -27.23, -72.88 -34.72, -78.95 -42.62 M-59.26 -20.74 C-65.25 -26.83, -70.65 -33.02, -78.95 -42.39" stroke="#e03131" stroke-width="2" fill="none"></path></g></g><mask></mask><g stroke-linecap="round"><g transform="translate(672.0697806487922 1321) rotate(0 -48.5 -52.5)"><path d="M0.71 -0.79 C-15.41 -18.49, -79.92 -88.23, -96.25 -105.47 M-0.38 1.42 C-16.63 -16.19, -80.5 -86.25, -96.8 -104.18" stroke="#e03131" stroke-width="2" fill="none"></path></g><g transform="translate(672.0697806487922 1321) rotate(0 -48.5 -52.5)"><path d="M-71.54 -88.99 C-80.09 -95.24, -87 -99.63, -96.27 -103.73 M-70.66 -89.71 C-78.2 -94.34, -88.38 -100.35, -97.07 -103.82" stroke="#e03131" stroke-width="2" fill="none"></path></g><g transform="translate(672.0697806487922 1321) rotate(0 -48.5 -52.5)"><path d="M-86.71 -75.18 C-90.22 -86.18, -92 -95.25, -96.27 -103.73 M-85.83 -75.9 C-88.36 -85, -93.59 -95.52, -97.07 -103.82" stroke="#e03131" stroke-width="2" fill="none"></path></g></g><mask></mask><g transform="translate(105.06978064879223 842) rotate(0 402.37213134765625 45)"><text x="0" y="0" font-family="Virgil, Segoe UI Emoji" font-size="36px" fill="#000000" text-anchor="start" style="white-space: pre;" direction="ltr" dominant-baseline="text-before-edge">Propuesta de estructura de Base de Datos</text><text x="0" y="45" font-family="Virgil, Segoe UI Emoji" font-size="36px" fill="#000000" text-anchor="start" style="white-space: pre;" direction="ltr" dominant-baseline="text-before-edge"></text></g><g stroke-linecap="round" transform="translate(185.06978064879223 1455) rotate(0 310.5 179)"><path d="M32 0 M32 0 C194.83 -1.25, 356.9 -1.85, 589 0 M32 0 C250.32 0.83, 468.17 0.68, 589 0 M589 0 C608.43 0.4, 620.62 12.66, 621 32 M589 0 C612.14 -0.77, 620.09 10.74, 621 32 M621 32 C619.52 107.65, 619.44 185.31, 621 326 M621 32 C621.07 95.26, 622.07 158.25, 621 326 M621 326 C619.73 349.03, 609.72 356.77, 589 358 M621 326 C621.98 345.06, 611.7 356.2, 589 358 M589 358 C430.71 356.55, 272.4 356.35, 32 358 M589 358 C375.28 359.95, 160.79 359.99, 32 358 M32 358 C11.55 357.42, 0.58 347.19, 0 326 M32 358 C11.48 359.17, 1.63 349.56, 0 326 M0 326 C-1.9 211.47, -0.21 95.49, 0 32 M0 326 C0.26 222.45, -0.13 117.63, 0 32 M0 32 C-0.42 12.32, 11.6 -0.29, 32 0 M0 32 C1.61 12.26, 8.85 -1.71, 32 0" stroke="#000000" stroke-width="1" fill="none"></path></g><g transform="translate(377.06978064879223 1462) rotate(0 126.09002685546875 22.5)"><text x="0" y="0" font-family="Virgil, Segoe UI Emoji" font-size="36px" fill="#000000" text-anchor="start" style="white-space: pre;" direction="ltr" dominant-baseline="text-before-edge">Modelo Cliente</text></g><g transform="translate(342.06978064879223 2164) rotate(0 198.68406677246094 22.5)"><text x="0" y="0" font-family="Virgil, Segoe UI Emoji" font-size="36px" fill="#000000" text-anchor="start" style="white-space: pre;" direction="ltr" dominant-baseline="text-before-edge">Documentos generados</text></g><g stroke-linecap="round"><g transform="translate(82.06978064879223 2141) rotate(0 441 1)"><path d="M0 0 C147 0.33, 735 1.67, 882 2 M0 0 C147 0.33, 735 1.67, 882 2" stroke="#000000" stroke-width="4" fill="none"></path></g></g><mask></mask><g stroke-linecap="round" transform="translate(109.06978064879223 2221) rotate(0 428.5 314.5)"><path d="M32 0 M32 0 C304.16 2.2, 574.86 1.75, 825 0 M32 0 C300.71 1.68, 569.68 1.2, 825 0 M825 0 C847.87 1.82, 855.5 10.66, 857 32 M825 0 C844.37 -1.44, 857.04 12.37, 857 32 M857 32 C855.56 186.85, 855.12 343.57, 857 597 M857 32 C856.62 256.22, 856.83 480, 857 597 M857 597 C857.09 618.53, 847.15 629.42, 825 629 M857 597 C858.12 617.92, 844.28 627.36, 825 629 M825 629 C541.24 629.62, 257.66 628.78, 32 629 M825 629 C556.56 631.69, 287.9 631.3, 32 629 M32 629 C11.35 630.14, -0.55 617.65, 0 597 M32 629 C8.47 630.92, 1.8 620.05, 0 597 M0 597 C1.76 426.91, 1.27 256.97, 0 32 M0 597 C-1.51 385.94, -1.29 175.6, 0 32 M0 32 C-0.12 10.99, 9.25 1.6, 32 0 M0 32 C1.94 9.25, 8.64 1.07, 32 0" stroke="#000000" stroke-width="1" fill="none"></path></g><g transform="translate(223.06978064879223 2248) rotate(0 65.88993072509766 12.5)"><text x="0" y="0" font-family="Virgil, Segoe UI Emoji" font-size="20px" fill="#000000" text-anchor="start" style="white-space: pre;" direction="ltr" dominant-baseline="text-before-edge">Medicion neta</text></g><g transform="translate(481.06978064879223 2248) rotate(0 49.62994384765625 12.5)"><text x="0" y="0" font-family="Virgil, Segoe UI Emoji" font-size="20px" fill="#000000" text-anchor="start" style="white-space: pre;" direction="ltr" dominant-baseline="text-before-edge">Cotizacion</text></g><g transform="translate(680.0697806487922 2249) rotate(0 86.98989868164062 12.5)"><text x="0" y="0" font-family="Virgil, Segoe UI Emoji" font-size="20px" fill="#000000" text-anchor="start" style="white-space: pre;" direction="ltr" dominant-baseline="text-before-edge">Reporte de venta</text></g><g transform="translate(420.3857138763313 2886.5) rotate(0 96.19202423095703 22.5)"><text x="0" y="0" font-family="Virgil, Segoe UI Emoji" font-size="36px" fill="#000000" text-anchor="start" style="white-space: pre;" direction="ltr" dominant-baseline="text-before-edge">User-Model</text></g><g transform="translate(234.06978064879223 2959) rotate(0 295.21966552734375 137.5)"><text x="0" y="0" font-family="Virgil, Segoe UI Emoji" font-size="20px" fill="#000000" text-anchor="start" style="white-space: pre;" direction="ltr" dominant-baseline="text-before-edge">id:</text><text x="0" y="25" font-family="Virgil, Segoe UI Emoji" font-size="20px" fill="#000000" text-anchor="start" style="white-space: pre;" direction="ltr" dominant-baseline="text-before-edge">Email</text><text x="0" y="50" font-family="Virgil, Segoe UI Emoji" font-size="20px" fill="#000000" text-anchor="start" style="white-space: pre;" direction="ltr" dominant-baseline="text-before-edge">Password</text><text x="0" y="75" font-family="Virgil, Segoe UI Emoji" font-size="20px" fill="#000000" text-anchor="start" style="white-space: pre;" direction="ltr" dominant-baseline="text-before-edge">Name</text><text x="0" y="100" font-family="Virgil, Segoe UI Emoji" font-size="20px" fill="#000000" text-anchor="start" style="white-space: pre;" direction="ltr" dominant-baseline="text-before-edge">Last_name</text><text x="0" y="125" font-family="Virgil, Segoe UI Emoji" font-size="20px" fill="#000000" text-anchor="start" style="white-space: pre;" direction="ltr" dominant-baseline="text-before-edge">Turnos/guardias</text><text x="0" y="150" font-family="Virgil, Segoe UI Emoji" font-size="20px" fill="#000000" text-anchor="start" style="white-space: pre;" direction="ltr" dominant-baseline="text-before-edge">Role: "Consultor" || "Cotizador" || "Otros"</text><text x="0" y="175" font-family="Virgil, Segoe UI Emoji" font-size="20px" fill="#000000" text-anchor="start" style="white-space: pre;" direction="ltr" dominant-baseline="text-before-edge">AutorizationLevel: "Q" || "Captain" || 'commander' || "liutenant"</text><text x="0" y="200" font-family="Virgil, Segoe UI Emoji" font-size="20px" fill="#000000" text-anchor="start" style="white-space: pre;" direction="ltr" dominant-baseline="text-before-edge"> || "ensign"</text><text x="0" y="225" font-family="Virgil, Segoe UI Emoji" font-size="20px" fill="#000000" text-anchor="start" style="white-space: pre;" direction="ltr" dominant-baseline="text-before-edge">team: "consultor_lider_name" || "departamento_name"</text><text x="0" y="250" font-family="Virgil, Segoe UI Emoji" font-size="20px" fill="#000000" text-anchor="start" style="white-space: pre;" direction="ltr" dominant-baseline="text-before-edge">team_id</text></g><g stroke-linecap="round" transform="translate(123.06978064879223 1372) rotate(0 120 30)"><path d="M15 0 M15 0 C69.32 -0.57, 119.57 1.08, 225 0 M15 0 C64.18 -0.1, 113.02 0.22, 225 0 M225 0 C236.23 0.46, 239.41 3.61, 240 15 M225 0 C237.27 2.06, 241.92 5.2, 240 15 M240 15 C240.4 20.62, 240.34 27.44, 240 45 M240 15 C239.69 26.08, 240.15 35.05, 240 45 M240 45 C238.02 54.68, 236.32 61.07, 225 60 M240 45 C242.16 56.65, 234.15 57.99, 225 60 M225 60 C180.13 59.75, 135.89 59.19, 15 60 M225 60 C181.2 60.65, 138.92 59.63, 15 60 M15 60 C6.66 61.23, -0.52 55.25, 0 45 M15 60 C3.5 60.34, 1.07 53.72, 0 45 M0 45 C1.54 35.97, 0.88 29.51, 0 15 M0 45 C0.24 37.25, 0.07 30.54, 0 15 M0 15 C-0.33 5.72, 5.14 -1.87, 15 0 M0 15 C1.33 3.79, 6.95 1.76, 15 0" stroke="#000000" stroke-width="1" fill="none"></path></g><g transform="translate(200.4198248992805 1377) rotate(0 42.64995574951172 25)"><text x="42.64995574951172" y="0" font-family="Virgil, Segoe UI Emoji" font-size="20px" fill="#000000" text-anchor="middle" style="white-space: pre;" direction="ltr" dominant-baseline="text-before-edge">Team</text><text x="42.64995574951172" y="25" font-family="Virgil, Segoe UI Emoji" font-size="20px" fill="#000000" text-anchor="middle" style="white-space: pre;" direction="ltr" dominant-baseline="text-before-edge">Team_id</text></g><g stroke-linecap="round"><g transform="translate(149.7352021539956 1224.8083289354433) rotate(0 -69.21963793289964 96.41586425934085)"><path d="M-1.09 0.62 C-9.05 6.58, -31.44 28.79, -47.11 36.77 C-62.77 44.74, -79.91 22.58, -95.07 48.46 C-110.23 74.33, -148.05 168.01, -138.09 192 C-128.13 215.99, -52.39 192.2, -35.32 192.41 M0.54 -0.1 C-7.09 6.51, -28.68 30.15, -44.73 37.89 C-60.77 45.64, -80.23 20.57, -95.72 46.37 C-111.21 72.16, -147.49 168.3, -137.66 192.67 C-127.82 217.03, -53.93 192.62, -36.71 192.58" stroke="#1971c2" stroke-width="2" fill="none"></path></g><g transform="translate(149.7352021539956 1224.8083289354433) rotate(0 -69.21963793289964 96.41586425934085)"><path d="M-61.78 206.33 C-54.92 202.7, -43.51 197.64, -38.1 192.83 M-62.74 206.45 C-55.29 202.84, -48.1 200.21, -36 193.51" stroke="#1971c2" stroke-width="2" fill="none"></path></g><g transform="translate(149.7352021539956 1224.8083289354433) rotate(0 -69.21963793289964 96.41586425934085)"><path d="M-65.19 186.09 C-56.94 189.71, -44.31 191.88, -38.1 192.83 M-66.15 186.21 C-57.83 187.96, -49.74 190.69, -36 193.51" stroke="#1971c2" stroke-width="2" fill="none"></path></g></g><mask></mask><g stroke-linecap="round"><g transform="translate(399.2531139821256 997.5116942322945) rotate(0 -167.5916666666667 197.24415288385262)"><path d="M0.47 -0.04 C-49.68 15.49, -246.87 52.53, -300.91 92.8 C-354.95 133.07, -317.95 193.53, -323.78 241.59 C-329.61 289.65, -342.87 355.79, -335.9 381.16 C-328.94 406.53, -290.61 391.71, -282.01 393.8 M-0.75 -1.1 C-50.5 14.07, -244.65 50.26, -298.58 90.84 C-352.51 131.43, -318.09 194.41, -324.33 242.43 C-330.58 290.45, -342.95 353.72, -336.04 378.95 C-329.12 404.19, -291.62 391.01, -282.86 393.83" stroke="#1971c2" stroke-width="2" fill="none"></path></g><g transform="translate(399.2531139821256 997.5116942322945) rotate(0 -167.5916666666667 197.24415288385262)"><path d="M-308.01 402.39 C-299.98 401.29, -294.58 396.52, -281.74 395.79 M-307.39 404.15 C-301 402.34, -295.03 399.4, -282.61 393.32" stroke="#1971c2" stroke-width="2" fill="none"></path></g><g transform="translate(399.2531139821256 997.5116942322945) rotate(0 -167.5916666666667 197.24415288385262)"><path d="M-308.42 383.98 C-300.32 388.32, -294.8 389, -281.74 395.79 M-307.8 385.74 C-301.49 388.39, -295.42 389.92, -282.61 393.32" stroke="#1971c2" stroke-width="2" fill="none"></path></g></g><mask></mask><g stroke-linecap="round" transform="translate(213.06978064879223 2946) rotate(0 311.5 198.5)"><path d="M32 0 M32 0 C229.63 -1.74, 426.23 -0.83, 591 0 M32 0 C153.84 -1.23, 275.11 -1.49, 591 0 M591 0 C612.5 0.74, 624.26 10.11, 623 32 M591 0 C613.4 -1.84, 623.84 12.66, 623 32 M623 32 C624.46 135.66, 626.58 236.91, 623 365 M623 32 C622.53 158.83, 621.95 285.44, 623 365 M623 365 C621.18 386.76, 613.19 397.72, 591 397 M623 365 C624.44 385.41, 611.45 396.74, 591 397 M591 397 C468.61 396.3, 347.75 396.28, 32 397 M591 397 C400.5 397.88, 209.32 397.82, 32 397 M32 397 C8.9 398.89, 1.31 387.82, 0 365 M32 397 C9.52 395.6, 0.86 384.36, 0 365 M0 365 C-0.79 239.63, -0.86 115.76, 0 32 M0 365 C-1.55 236.39, -0.66 108.28, 0 32 M0 32 C0.95 10.49, 12.15 -0.7, 32 0 M0 32 C-1.07 12.82, 10.6 1.52, 32 0" stroke="#000000" stroke-width="1" fill="none"></path></g><g stroke-linecap="round"><g transform="translate(601.0697806487922 1003) rotate(0 178.5 74.5)"><path d="M0.38 0.73 C6.98 -0.13, -20.33 0.43, 39.06 -4.83 C98.44 -10.09, 307.05 -57.61, 356.71 -30.84 C406.37 -4.06, 358.52 120.9, 337.02 155.81 C315.52 190.72, 245.66 174.6, 227.69 178.62 M-0.88 0.06 C5.7 -0.68, -20.78 1.27, 38.66 -3.73 C98.11 -8.73, 306.11 -56.63, 355.79 -29.96 C405.47 -3.29, 357.76 121.5, 336.75 156.29 C315.74 191.09, 247.91 174.96, 229.71 178.81" stroke="#1971c2" stroke-width="2" fill="none"></path></g><g transform="translate(601.0697806487922 1003) rotate(0 178.5 74.5)"><path d="M259.12 170.32 C249.3 170.8, 242.04 172.28, 227.73 178.29 M258.04 167.89 C250.98 170.87, 243.36 173.43, 229.39 179.59" stroke="#1971c2" stroke-width="2" fill="none"></path></g><g transform="translate(601.0697806487922 1003) rotate(0 178.5 74.5)"><path d="M259.11 190.85 C249.24 186.05, 241.99 182.26, 227.73 178.29 M258.02 188.41 C250.77 185.89, 243.15 182.95, 229.39 179.59" stroke="#1971c2" stroke-width="2" fill="none"></path></g></g><mask></mask><g stroke-linecap="round"><g transform="translate(605.0697806487922 994) rotate(0 202.5 108.5)"><path d="M1.15 -0.36 C5 -0.81, -27.27 4.56, 22.52 -3.85 C72.31 -12.26, 235.97 -53.11, 299.91 -50.82 C363.85 -48.53, 397.87 -34.39, 406.15 9.89 C414.42 54.17, 377.51 172.12, 349.56 214.87 C321.6 257.62, 256.81 257.81, 238.41 266.36 M0.3 -1.59 C4.08 -1.73, -28.04 5.82, 21.84 -2.24 C71.73 -10.3, 236.04 -52.12, 299.62 -49.93 C363.2 -47.73, 394.69 -33.34, 403.34 10.93 C411.99 55.21, 379.34 172.77, 351.51 215.72 C323.69 258.67, 255.5 259.93, 236.38 268.65" stroke="#1971c2" stroke-width="2" fill="none"></path></g><g transform="translate(605.0697806487922 994) rotate(0 202.5 108.5)"><path d="M260.56 252.6 C254.98 257.76, 247.12 262.43, 236.19 267.91 M262.14 251.05 C251.13 257.45, 242.28 264.39, 235.63 269.22" stroke="#1971c2" stroke-width="2" fill="none"></path></g><g transform="translate(605.0697806487922 994) rotate(0 202.5 108.5)"><path d="M265.64 272.48 C258.96 272.67, 249.82 272.32, 236.19 267.91 M267.21 270.93 C254.25 269.9, 243.5 269.43, 235.63 269.22" stroke="#1971c2" stroke-width="2" fill="none"></path></g></g><mask></mask><g stroke-linecap="round"><g transform="translate(610.0697806487922 983) rotate(0 211.5 146)"><path d="M-0.96 -0.93 C-0.93 -0.93, -15.6 3.85, -0.07 -0.06 C15.47 -3.98, 37.02 -14.4, 92.23 -24.42 C147.43 -34.44, 275.94 -63.46, 331.17 -60.17 C386.4 -56.88, 418.74 -60.37, 423.62 -4.68 C428.5 51, 394.88 214.67, 360.45 273.93 C326.01 333.18, 240.76 337.86, 217.01 350.84 M0.73 1.19 C0.62 1.41, -16.19 5.53, -1.05 1.44 C14.09 -2.65, 36.25 -13.23, 91.58 -23.33 C146.92 -33.43, 275.83 -62.27, 330.98 -59.16 C386.13 -56.05, 417.38 -59.99, 422.48 -4.65 C427.58 50.68, 395.79 213.31, 361.57 272.85 C327.34 332.38, 241.24 339.46, 217.13 352.54" stroke="#1971c2" stroke-width="2" fill="none"></path></g><g transform="translate(610.0697806487922 983) rotate(0 211.5 146)"><path d="M239.1 333.82 C233.93 339.35, 226.72 342.8, 216.84 353.58 M239.83 332.96 C234.83 338.25, 229.97 343.19, 216.76 352.96" stroke="#1971c2" stroke-width="2" fill="none"></path></g><g transform="translate(610.0697806487922 983) rotate(0 211.5 146)"><path d="M245.56 353.29 C238.59 353.3, 229.57 351.29, 216.84 353.58 M246.29 352.43 C239.81 352.99, 233.38 353.2, 216.76 352.96" stroke="#1971c2" stroke-width="2" fill="none"></path></g></g><mask></mask><g stroke-linecap="round" transform="translate(656.0697806487922 1371) rotate(0 86.5 38.5)"><path d="M108.75 9.75 M108.75 9.75 C121.03 14.67, 133.66 18.72, 151.25 29.25 M108.75 9.75 C124.28 15.85, 140.38 24.69, 151.25 29.25 M151.25 29.25 C174.25 40.16, 171.34 38.42, 151.25 48.75 M151.25 29.25 C174.12 36.83, 171.09 40, 151.25 48.75 M151.25 48.75 C134.79 55.23, 120.27 63.04, 108.75 67.25 M151.25 48.75 C134.2 55.44, 118.92 62.08, 108.75 67.25 M108.75 67.25 C86.21 77.96, 88.06 77.19, 65.25 67.25 M108.75 67.25 C89.06 79.24, 84.89 77.47, 65.25 67.25 M65.25 67.25 C57.1 63.1, 48.07 57.44, 21.75 48.75 M65.25 67.25 C51.17 62.21, 36.51 55.95, 21.75 48.75 M21.75 48.75 C1.89 37.53, 0.36 40.5, 21.75 29.25 M21.75 48.75 C-1.62 40.09, 0.17 37.1, 21.75 29.25 M21.75 29.25 C40.18 20.03, 54.68 13.95, 65.25 9.75 M21.75 29.25 C34.3 23.32, 46.35 18.3, 65.25 9.75 M65.25 9.75 C88.92 -0.06, 85.41 1.05, 108.75 9.75 M65.25 9.75 C85.61 0.77, 87.82 0.39, 108.75 9.75" stroke="#000000" stroke-width="1" fill="none"></path></g><g transform="translate(713.0898154388312 1397.25) rotate(0 29.729965209960938 12.5)"><text x="29.729965209960938" y="0" font-family="Virgil, Segoe UI Emoji" font-size="20px" fill="#000000" text-anchor="middle" style="white-space: pre;" direction="ltr" dominant-baseline="text-before-edge">Notas</text></g><g stroke-linecap="round"><g transform="translate(679.0697806487922 1392) rotate(0 -64 -90)"><path d="M-0.45 0.42 C-21.87 -29.85, -106.51 -151.22, -127.61 -181.16 M1.51 -0.4 C-20.11 -30.62, -106.88 -150.11, -128.36 -180.23" stroke="#e03131" stroke-width="2" fill="none"></path></g><g transform="translate(679.0697806487922 1392) rotate(0 -64 -90)"><path d="M-102.85 -162.71 C-114.84 -168.21, -120.89 -177.1, -127.08 -178.37 M-103.66 -162.63 C-111.33 -170.04, -119.19 -175.42, -128.76 -181.1" stroke="#e03131" stroke-width="2" fill="none"></path></g><g transform="translate(679.0697806487922 1392) rotate(0 -64 -90)"><path d="M-119.5 -150.71 C-125.3 -160.64, -125.12 -174.03, -127.08 -178.37 M-120.31 -150.64 C-122.63 -161.87, -125.03 -171.18, -128.76 -181.1" stroke="#e03131" stroke-width="2" fill="none"></path></g></g><mask></mask><g stroke-linecap="round"><g transform="translate(603.0697806487922 1004) rotate(0 238 155)"><path d="M-0.9 -1.14 C5.68 -7.95, -22.08 -24.79, 38.7 -40.75 C99.47 -56.7, 291.08 -101.8, 363.77 -96.87 C436.45 -91.94, 474.07 -85.09, 474.81 -11.16 C475.54 62.77, 409.34 276.87, 368.19 346.7 C327.04 416.53, 251.38 397.91, 227.91 407.82 M0.83 0.87 C7.29 -6.32, -22.75 -26.68, 37.59 -42.74 C97.93 -58.8, 290.07 -100.92, 362.88 -95.49 C435.69 -90.06, 473.77 -83.96, 474.43 -10.14 C475.09 63.69, 407.68 277.9, 366.82 347.46 C325.96 417.02, 252.47 397.12, 229.27 407.21" stroke="#1971c2" stroke-width="2" fill="none"></path></g><g transform="translate(603.0697806487922 1004) rotate(0 238 155)"><path d="M253.99 392.88 C250.09 396.04, 243.64 397.68, 229.01 407.53 M255.34 392.68 C247.32 398.16, 237.3 403.84, 229.64 408.19" stroke="#1971c2" stroke-width="2" fill="none"></path></g><g transform="translate(603.0697806487922 1004) rotate(0 238 155)"><path d="M256.65 413.23 C252.11 411.6, 245.04 408.47, 229.01 407.53 M258 413.03 C249.04 411.23, 238.07 409.61, 229.64 408.19" stroke="#1971c2" stroke-width="2" fill="none"></path></g></g><mask></mask><g stroke-linecap="round" transform="translate(161.06978064879223 1072) rotate(0 109 30.5)"><path d="M15.25 0 M15.25 0 C70.06 -2.66, 125.23 0.58, 202.75 0 M15.25 0 C67.37 0.17, 120.61 -0.56, 202.75 0 M202.75 0 C214.01 -1.96, 217.65 6.24, 218 15.25 M202.75 0 C213.66 -1.23, 216 7.17, 218 15.25 M218 15.25 C218.22 27.55, 217.47 37.93, 218 45.75 M218 15.25 C217.1 22.1, 217.4 27.39, 218 45.75 M218 45.75 C217.65 55.42, 212.19 59.76, 202.75 61 M218 45.75 C217.94 56.44, 214.83 62.25, 202.75 61 M202.75 61 C137.65 58.88, 71.67 59.26, 15.25 61 M202.75 61 C134.63 59.85, 66.2 60.81, 15.25 61 M15.25 61 C3.14 61.7, -1.98 56.04, 0 45.75 M15.25 61 C6.52 61.88, -1.96 56.44, 0 45.75 M0 45.75 C0.87 36.75, -1.91 31.04, 0 15.25 M0 45.75 C-0.1 34.48, 0.12 21.75, 0 15.25 M0 15.25 C-1.81 5.42, 3.72 -0.05, 15.25 0 M0 15.25 C0.49 3.17, 6.7 2.19, 15.25 0" stroke="#000000" stroke-width="1" fill="none"></path></g><g transform="translate(186.88987952574536 1090) rotate(0 83.17990112304688 12.5)"><text x="83.17990112304688" y="0" font-family="Virgil, Segoe UI Emoji" font-size="20px" fill="#000000" text-anchor="middle" style="white-space: pre;" direction="ltr" dominant-baseline="text-before-edge">Turnos/Guardias</text></g><g stroke-linecap="round"><g transform="translate(410.06978064879223 985) rotate(0 -157.5 60.5)"><path d="M-0.29 0.56 C-43.67 6.83, -206.71 18.84, -259.14 38 C-311.58 57.15, -314.99 101.8, -314.89 115.48 C-314.8 129.17, -267.91 119.28, -258.58 120.13 M1.76 -0.2 C-41.89 6.25, -207.27 20.6, -260.16 39.53 C-313.06 58.46, -315.94 99.86, -315.6 113.4 C-315.27 126.94, -267.38 119.55, -258.17 120.77" stroke="#1971c2" stroke-width="2" fill="none"></path></g><g transform="translate(410.06978064879223 985) rotate(0 -157.5 60.5)"><path d="M-283.5 130.87 C-274.09 127.26, -262.91 123.51, -259.63 120.74 M-283.45 131.73 C-277.68 129.5, -270.2 124.87, -257.94 120.66" stroke="#1971c2" stroke-width="2" fill="none"></path></g><g transform="translate(410.06978064879223 985) rotate(0 -157.5 60.5)"><path d="M-284 111.58 C-274.34 115.59, -262.95 119.47, -259.63 120.74 M-283.96 112.44 C-278.2 115.32, -270.58 115.79, -257.94 120.66" stroke="#1971c2" stroke-width="2" fill="none"></path></g></g><mask></mask><g stroke-linecap="round"><g transform="translate(62.06978064879223 3401) rotate(0 468.44956258800767 -1.5674230670779252)"><path d="M-0.45 0.46 C141.63 -0.15, 702.2 -2.88, 853.24 -3.26 C1004.28 -3.65, 902.03 -2.03, 905.79 -1.85 C909.55 -1.67, 880.88 -2.25, 875.79 -2.19 M1.52 -0.35 C143.91 -0.81, 704.89 -1.32, 855.55 -1.86 C1006.2 -2.4, 901.96 -3.7, 905.44 -3.58 C908.93 -3.47, 881.71 -1.65, 876.45 -1.18" stroke="#000000" stroke-width="4" fill="none"></path></g></g><mask></mask><g transform="translate(255.06978064879223 2692) rotate(0 262.6932373046875 49.810555604890055)"><text x="0" y="0" font-family="Virgil, Segoe UI Emoji" font-size="19.924222241956013px" fill="#000000" text-anchor="start" style="white-space: pre;" direction="ltr" dominant-baseline="text-before-edge">Todos estos documentos tienen una triple referencia:</text><text x="0" y="24.905277802445017" font-family="Virgil, Segoe UI Emoji" font-size="19.924222241956013px" fill="#000000" text-anchor="start" style="white-space: pre;" direction="ltr" dominant-baseline="text-before-edge">user_id, para el que los hace</text><text x="0" y="49.810555604890034" font-family="Virgil, Segoe UI Emoji" font-size="19.924222241956013px" fill="#000000" text-anchor="start" style="white-space: pre;" direction="ltr" dominant-baseline="text-before-edge">client_id, para el cliente.</text><text x="0" y="74.71583340733505" font-family="Virgil, Segoe UI Emoji" font-size="19.924222241956013px" fill="#000000" text-anchor="start" style="white-space: pre;" direction="ltr" dominant-baseline="text-before-edge">edition_id, para cada modificacion que se le haga.</text></g><g stroke-linecap="round"><g transform="translate(29.069780648792232 2866) rotate(0 507 -3)"><path d="M-0.02 0.42 C169.15 -0.66, 845.15 -5.21, 1014.27 -6.44 M-1.48 -0.4 C167.61 -1.33, 844.17 -4.18, 1013.46 -5.14" stroke="#000000" stroke-width="4" fill="none"></path></g></g><mask></mask><g transform="translate(319.06978064879223 2292) rotate(0 70.6499252319336 12.5)"><text x="0" y="0" font-family="Virgil, Segoe UI Emoji" font-size="20px" fill="#000000" text-anchor="start" style="white-space: pre;" direction="ltr" dominant-baseline="text-before-edge">Change Orders</text></g><g transform="translate(608.0697806487922 2310) rotate(0 29.729965209960938 12.5)"><text x="0" y="0" font-family="Virgil, Segoe UI Emoji" font-size="20px" fill="#000000" text-anchor="start" style="white-space: pre;" direction="ltr" dominant-baseline="text-before-edge">Notas</text></g><g stroke-linecap="round" transform="translate(197.06978064879223 2665) rotate(0 320.5 74)"><path d="M32 0 M32 0 C222.47 1.54, 411.49 2.31, 609 0 M32 0 C164.44 1.75, 296.7 2.49, 609 0 M609 0 C628.39 0.79, 640.67 10.31, 641 32 M609 0 C631.29 -2.15, 641.67 10.45, 641 32 M641 32 C639.98 57.73, 643.05 87, 641 116 M641 32 C641.24 50.87, 641.76 69.81, 641 116 M641 116 C640.09 135.45, 632.32 149.61, 609 148 M641 116 C641.74 138.34, 630.27 149.77, 609 148 M609 148 C395.44 146.08, 180.64 146.52, 32 148 M609 148 C406.94 149.16, 204.53 148.9, 32 148 M32 148 C10.21 149.18, 0.85 138.78, 0 116 M32 148 C12.7 148.75, 1.99 139.33, 0 116 M0 116 C-1.92 93.02, -0.03 73.62, 0 32 M0 116 C-1.02 93.91, -0.82 70.59, 0 32 M0 32 C1.93 8.72, 10.34 -0.75, 32 0 M0 32 C0.83 12.17, 10.45 -0.27, 32 0" stroke="#e03131" stroke-width="1" fill="none"></path></g><g stroke-linecap="round" transform="translate(185.06978064879223 2357) rotate(0 346.5 145)"><path d="M32 0 M32 0 C157.6 0, 284.01 0.47, 661 0 M32 0 C267.1 1.75, 501.91 1.48, 661 0 M661 0 C683.55 1.19, 693.64 9.21, 693 32 M661 0 C681.62 1.83, 693.57 9.74, 693 32 M693 32 C694.82 104.05, 692.54 178.74, 693 258 M693 32 C693.49 79.35, 693.39 126.03, 693 258 M693 258 C691.32 279.02, 682.6 291.42, 661 290 M693 258 C695.1 277.45, 681.06 290.76, 661 290 M661 290 C517.92 291.11, 374.92 289.86, 32 290 M661 290 C491.31 290.37, 322.26 289.74, 32 290 M32 290 C11.33 288.99, -1.67 280.02, 0 258 M32 290 C12.03 291.36, 1.37 280.15, 0 258 M0 258 C-1.25 199.87, 0.33 138.78, 0 32 M0 258 C2.41 180.47, 1.12 103.64, 0 32 M0 32 C-0.31 12.43, 9.69 -0.65, 32 0 M0 32 C-2.13 12.63, 11.06 -0.16, 32 0" stroke="#1e1e1e" stroke-width="1" fill="none"></path></g><g transform="translate(211.06978064879223 2397) rotate(0 317.9696350097656 75)"><text x="0" y="0" font-family="Virgil, Segoe UI Emoji" font-size="20px" fill="#1e1e1e" text-anchor="start" style="white-space: pre;" direction="ltr" dominant-baseline="text-before-edge">Cada documento tiene su propia estructura y datos requeridos.</text><text x="0" y="25" font-family="Virgil, Segoe UI Emoji" font-size="20px" fill="#1e1e1e" text-anchor="start" style="white-space: pre;" direction="ltr" dominant-baseline="text-before-edge">por esa razón, cada uno debe tener campos que se completan</text><text x="0" y="50" font-family="Virgil, Segoe UI Emoji" font-size="20px" fill="#1e1e1e" text-anchor="start" style="white-space: pre;" direction="ltr" dominant-baseline="text-before-edge">manualmente.</text><text x="0" y="75" font-family="Virgil, Segoe UI Emoji" font-size="20px" fill="#1e1e1e" text-anchor="start" style="white-space: pre;" direction="ltr" dominant-baseline="text-before-edge"></text><text x="0" y="100" font-family="Virgil, Segoe UI Emoji" font-size="20px" fill="#1e1e1e" text-anchor="start" style="white-space: pre;" direction="ltr" dominant-baseline="text-before-edge">Los demas se llenan de forma automatica enlazando esta app</text><text x="0" y="125" font-family="Virgil, Segoe UI Emoji" font-size="20px" fill="#1e1e1e" text-anchor="start" style="white-space: pre;" direction="ltr" dominant-baseline="text-before-edge">con la api de goforms.</text></g><g transform="translate(313.06978064879223 136) rotate(0 160.90203857421875 22.5)"><text x="0" y="0" font-family="Virgil, Segoe UI Emoji" font-size="36px" fill="#1e1e1e" text-anchor="start" style="white-space: pre;" direction="ltr" dominant-baseline="text-before-edge">Ruby On Rails app</text></g><g transform="translate(319.06978064879223 358) rotate(0 161.1900634765625 22.5)"><text x="0" y="0" font-family="Virgil, Segoe UI Emoji" font-size="36px" fill="#1e1e1e" text-anchor="start" style="white-space: pre;" direction="ltr" dominant-baseline="text-before-edge">Heroku Deployment</text></g><g stroke-linecap="round" transform="translate(260.06978064879223 10) rotate(0 214.5 147)"><path d="M268.75 37 M268.75 37 C309.06 62.74, 346.08 90.55, 375.25 111 M268.75 37 C307.61 65.63, 344.52 91.7, 375.25 111 M375.25 111 C427.72 147.73, 427.87 149.12, 375.25 185 M375.25 111 C427.61 149.06, 428.32 148.87, 375.25 185 M375.25 185 C342.31 204.46, 312.43 224.94, 268.75 257 M375.25 185 C340.4 208.58, 303.68 233.92, 268.75 257 M268.75 257 C213.01 295.86, 214.3 292.23, 161.25 257 M268.75 257 C213.04 296.05, 216.1 293.06, 161.25 257 M161.25 257 C123.61 231.8, 81.66 204.91, 53.75 185 M161.25 257 C133.6 236.98, 103.43 216.89, 53.75 185 M53.75 185 C1.57 147.33, 0.75 148.35, 53.75 111 M53.75 185 C-0.51 148.76, 0.35 148.85, 53.75 111 M53.75 111 C80.35 91.6, 106.08 73.59, 161.25 37 M53.75 111 C95.51 81.7, 137.31 54.31, 161.25 37 M161.25 37 C214.02 -1.49, 214.81 -0.05, 268.75 37 M161.25 37 C217.25 0.45, 214.23 -1.28, 268.75 37" stroke="#e03131" stroke-width="4" fill="none"></path></g><g stroke-linecap="round"><g transform="translate(265.06978064879223 331) rotate(0 220.5 -3)"><path d="M1.03 -0.1 C74.22 -1.21, 367.09 -5.24, 440.28 -6.14 M0.11 -1.2 C73.6 -2.16, 368.86 -3.61, 442.61 -4.67" stroke="#9c36b5" stroke-width="4" fill="none"></path></g></g><mask></mask><g stroke-linecap="round"><g transform="translate(260.06978064879223 420) rotate(0 231 -1)"><path d="M0.8 -0.6 C77.7 -0.98, 385.11 -2.77, 462.09 -3.12 M-0.24 1.7 C76.45 1.49, 384.1 -1.59, 461.2 -2.17" stroke="#9c36b5" stroke-width="4" fill="none"></path></g></g><mask></mask><g stroke-linecap="round"><g transform="translate(480.06978064879223 475) rotate(0 1.5 100.5)"><path d="M-0.43 -0.24 C0.09 33.11, 3.01 166.63, 3.43 200.02 M1.55 -1.41 C1.92 32.06, 2.21 167.32, 2.71 201.05" stroke="#9c36b5" stroke-width="4" fill="none"></path></g><g transform="translate(480.06978064879223 475) rotate(0 1.5 100.5)"><path d="M-8.17 173.66 C-5.99 180.71, -2.43 191.51, 2.96 202.39 M-7.7 173.65 C-4.88 179.73, -3.28 187.79, 3.18 201.66" stroke="#9c36b5" stroke-width="4" fill="none"></path></g><g transform="translate(480.06978064879223 475) rotate(0 1.5 100.5)"><path d="M12.35 173.5 C7.83 180.53, 4.68 191.38, 2.96 202.39 M12.82 173.49 C10.43 179.5, 6.82 187.6, 3.18 201.66" stroke="#9c36b5" stroke-width="4" fill="none"></path></g></g><mask></mask><g transform="translate(404.06978064879223 3423) rotate(0 89.02803039550781 22.5)"><text x="0" y="0" font-family="Virgil, Segoe UI Emoji" font-size="36px" fill="#1e1e1e" text-anchor="start" style="white-space: pre;" direction="ltr" dominant-baseline="text-before-edge">Productos</text></g><g stroke-linecap="round" transform="translate(206.06978064879223 3475) rotate(0 314 156.5)"><path d="M32 0 M32 0 C221.34 1.3, 409.65 0.52, 596 0 M32 0 C214.25 1.55, 397.12 1.64, 596 0 M596 0 C615.58 -1.16, 626.79 9.47, 628 32 M596 0 C617.49 0.5, 629.1 12.94, 628 32 M628 32 C627.85 98.34, 627.26 160.29, 628 281 M628 32 C628.59 118.59, 628.68 205.48, 628 281 M628 281 C627.54 301.51, 618.26 314.66, 596 313 M628 281 C626.88 303.49, 618.13 311.01, 596 313 M596 313 C468.92 312.62, 343.17 313.54, 32 313 M596 313 C446.7 314.27, 296.9 313.9, 32 313 M32 313 C9.35 311.92, -0.23 303.14, 0 281 M32 313 C10.05 311.94, 1.86 304.49, 0 281 M0 281 C1.74 203.2, 2.6 125.18, 0 32 M0 281 C1.16 213.39, 1.3 144.72, 0 32 M0 32 C1.91 9.51, 12.65 1.37, 32 0 M0 32 C-0.6 10.96, 8.39 1, 32 0" stroke="#1e1e1e" stroke-width="2" fill="none"></path></g><g transform="translate(267.06978064879223 3486) rotate(0 243.59976196289062 87.5)"><text x="0" y="0" font-family="Virgil, Segoe UI Emoji" font-size="20px" fill="#1e1e1e" text-anchor="start" style="white-space: pre;" direction="ltr" dominant-baseline="text-before-edge">Id</text><text x="0" y="25" font-family="Virgil, Segoe UI Emoji" font-size="20px" fill="#1e1e1e" text-anchor="start" style="white-space: pre;" direction="ltr" dominant-baseline="text-before-edge">Name</text><text x="0" y="50" font-family="Virgil, Segoe UI Emoji" font-size="20px" fill="#1e1e1e" text-anchor="start" style="white-space: pre;" direction="ltr" dominant-baseline="text-before-edge">Type</text><text x="0" y="75" font-family="Virgil, Segoe UI Emoji" font-size="20px" fill="#1e1e1e" text-anchor="start" style="white-space: pre;" direction="ltr" dominant-baseline="text-before-edge">Brand</text><text x="0" y="100" font-family="Virgil, Segoe UI Emoji" font-size="20px" fill="#1e1e1e" text-anchor="start" style="white-space: pre;" direction="ltr" dominant-baseline="text-before-edge">PriceModifier= {one: 1, two: -2000, three: -2000,</text><text x="0" y="125" font-family="Virgil, Segoe UI Emoji" font-size="20px" fill="#1e1e1e" text-anchor="start" style="white-space: pre;" direction="ltr" dominant-baseline="text-before-edge"> four: -10000, credit:XXXX} (This is a hash)</text><text x="0" y="150" font-family="Virgil, Segoe UI Emoji" font-size="20px" fill="#1e1e1e" text-anchor="start" style="white-space: pre;" direction="ltr" dominant-baseline="text-before-edge">Status: 'deprecated' || 'active' </text></g><g stroke-linecap="round"><g transform="translate(27.069780648792232 3805) rotate(0 519.1418563071638 0.13180177140975502)"><path d="M-0.65 -0.91 C172.38 -1.1, 865.89 -0.78, 1038.93 -0.8 M1.21 1.23 C174.09 1.15, 865.91 0.56, 1038.47 0.31" stroke="#1e1e1e" stroke-width="4" fill="none"></path></g></g><mask></mask><g stroke-linecap="round"><g transform="translate(234.06978064879223 3683) rotate(0 285.6432288326882 0.5301961478114663)"><path d="M0.21 -0.62 C95.42 -0.22, 475.17 1.3, 570.16 1.37 M-1.15 1.67 C94.54 1.79, 476.81 -0.37, 572.43 -0.56" stroke="#e03131" stroke-width="1" fill="none"></path></g></g><mask></mask><g transform="translate(326.06978064879223 3738) rotate(0 223.1397705078125 12.5)"><text x="0" y="0" font-family="Virgil, Segoe UI Emoji" font-size="20px" fill="#e03131" text-anchor="start" style="white-space: pre;" direction="ltr" dominant-baseline="text-before-edge">after_update: :create_edition(current_user)</text></g><g transform="translate(329.06978064879223 3707) rotate(0 167.65982055664062 12.5)"><text x="0" y="0" font-family="Virgil, Segoe UI Emoji" font-size="20px" fill="#2f9e44" text-anchor="start" style="white-space: pre;" direction="ltr" dominant-baseline="text-before-edge">before_update: :create_snapShot</text></g><g transform="translate(245.49084326763534 3721.31785662982) rotate(270.56547556339956 37.226646423339844 8.67533759411026)"><text x="0" y="0" font-family="Virgil, Segoe UI Emoji" font-size="13.88054015057642px" fill="#1971c2" text-anchor="start" style="white-space: pre;" direction="ltr" dominant-baseline="text-before-edge">Callbacks...</text></g><g stroke-linecap="round"><g transform="translate(221.06978064879223 3238) rotate(0 302.5 -1)"><path d="M0.12 -0.96 C100.9 -1.25, 503.85 -2.69, 604.65 -2.73 M-1.28 1.15 C99.32 1.09, 502.62 -0.87, 603.51 -1.58" stroke="#e03131" stroke-width="1" fill="none"></path></g></g><mask></mask><g transform="translate(342.1273127065969 3295.0216080373434) rotate(0 223.1397705078125 12.5)"><text x="0" y="0" font-family="Virgil, Segoe UI Emoji" font-size="20px" fill="#e03131" text-anchor="start" style="white-space: pre;" direction="ltr" dominant-baseline="text-before-edge">after_update: :create_edition(current_user)</text></g><g transform="translate(345.1273127065969 3264.0216080373434) rotate(0 167.65982055664062 12.5)"><text x="0" y="0" font-family="Virgil, Segoe UI Emoji" font-size="20px" fill="#2f9e44" text-anchor="start" style="white-space: pre;" direction="ltr" dominant-baseline="text-before-edge">before_update: :create_snapShot</text></g><g transform="translate(261.54837532544 3278.339464667164) rotate(270.56547556339956 37.226646423339844 8.67533759411026)"><text x="0" y="0" font-family="Virgil, Segoe UI Emoji" font-size="13.88054015057642px" fill="#1971c2" text-anchor="start" style="white-space: pre;" direction="ltr" dominant-baseline="text-before-edge">Callbacks...</text></g><g stroke-linecap="round" transform="translate(156.06978064879223 1274) rotate(0 97.5 20.5)"><path d="M10.25 0 M10.25 0 C59.49 1.65, 108.61 0.9, 184.75 0 M10.25 0 C52.25 0.28, 95.57 0.17, 184.75 0 M184.75 0 C192.71 -2, 193.1 3.45, 195 10.25 M184.75 0 C193.21 1.49, 196.35 3.92, 195 10.25 M195 10.25 C195.97 16.86, 195.03 21.2, 195 30.75 M195 10.25 C194.61 15.24, 196.03 21.73, 195 30.75 M195 30.75 C194.12 38.86, 189.6 42.58, 184.75 41 M195 30.75 C196.96 37.27, 193.64 42.58, 184.75 41 M184.75 41 C126.45 42.54, 70.47 40.04, 10.25 41 M184.75 41 C117.64 40.74, 52.21 42.29, 10.25 41 M10.25 41 C4.76 42.78, -0.32 36.17, 0 30.75 M10.25 41 C4.55 39.76, -2.03 38.34, 0 30.75 M0 30.75 C-0.56 25.75, -1.83 15.85, 0 10.25 M0 30.75 C0.01 24.66, 0.99 16.26, 0 10.25 M0 10.25 C-0.03 5.12, 3.66 -1.49, 10.25 0 M0 10.25 C1.59 1.91, 2.83 -0.58, 10.25 0" stroke="#1e1e1e" stroke-width="1" fill="none"></path></g><g transform="translate(195.57985144957348 1282) rotate(0 57.98992919921875 12.5)"><text x="57.98992919921875" y="0" font-family="Virgil, Segoe UI Emoji" font-size="20px" fill="#1e1e1e" text-anchor="middle" style="white-space: pre;" direction="ltr" dominant-baseline="text-before-edge">Propiedades</text></g><g stroke-linecap="round"><g transform="translate(234.06978064879223 1224) rotate(0 6 19.5)"><path d="M-0.76 0.63 C0.97 7.06, 9.23 31.91, 11.23 38.29 M1.04 -0.08 C3.08 6.51, 11.43 32.74, 13.53 39.46" stroke="#e03131" stroke-width="2" fill="none"></path></g><g transform="translate(234.06978064879223 1224) rotate(0 6 19.5)"><path d="M2.16 21.99 C4.49 27.99, 10.17 36.35, 15.3 39.26 M1 23.79 C3.84 27.65, 6.34 31.63, 13.78 39.1" stroke="#e03131" stroke-width="2" fill="none"></path></g><g transform="translate(234.06978064879223 1224) rotate(0 6 19.5)"><path d="M15.47 17.78 C12.86 25.25, 13.63 35.17, 15.3 39.26 M14.31 19.58 C13.88 24.47, 13.09 29.48, 13.78 39.1" stroke="#e03131" stroke-width="2" fill="none"></path></g></g><mask></mask><g stroke-linecap="round"><g transform="translate(359.06978064879223 1292) rotate(0 52 -47)"><path d="M0.57 -0.44 C17.6 -16.13, 85.95 -78.26, 103.31 -93.9 M-0.59 -1.71 C16.73 -17.22, 88.18 -77.08, 105.66 -92.31" stroke="#e03131" stroke-width="2" fill="none"></path></g><g transform="translate(359.06978064879223 1292) rotate(0 52 -47)"><path d="M90.14 -67.36 C96.83 -75.43, 102.06 -88.44, 105.38 -93.31 M91.31 -66.26 C95.47 -73.13, 99.75 -79.75, 105.67 -93.31" stroke="#e03131" stroke-width="2" fill="none"></path></g><g transform="translate(359.06978064879223 1292) rotate(0 52 -47)"><path d="M76.82 -82.97 C88.82 -84.92, 99.32 -91.76, 105.38 -93.31 M77.99 -81.87 C85.6 -84.72, 93.4 -87.21, 105.67 -93.31" stroke="#e03131" stroke-width="2" fill="none"></path></g></g><mask></mask><g stroke-linecap="round" transform="translate(177.06978064879223 1829) rotate(0 329.5 142.5)"><path d="M32 0 M32 0 C180.73 -0.54, 327.76 0.55, 627 0 M32 0 C224.97 1.81, 417.81 2.05, 627 0 M627 0 C648.97 1.9, 659.84 10.6, 659 32 M627 0 C649.71 -2.12, 660.26 12.18, 659 32 M659 32 C659.58 79.8, 659.86 130.72, 659 253 M659 32 C660.01 89.79, 658.84 148, 659 253 M659 253 C659.8 274.11, 649.57 286.87, 627 285 M659 253 C660.18 273.33, 649.28 284.49, 627 285 M627 285 C470.14 286.77, 314 286.31, 32 285 M627 285 C421.58 283.43, 216.61 283.51, 32 285 M32 285 C9.64 284.96, -0.27 272.47, 0 253 M32 285 C10.72 285.32, 1.9 273.01, 0 253 M0 253 C0.31 166.78, 0.12 80.99, 0 32 M0 253 C0.25 197.21, 1.32 140.62, 0 32 M0 32 C0.52 10.26, 11.11 1.38, 32 0 M0 32 C1.23 11.63, 9.55 -2.2, 32 0" stroke="#1e1e1e" stroke-width="2" fill="none"></path></g><g transform="translate(182.06978064879223 1834) rotate(0 274.0696716308594 137.5)"><text x="0" y="0" font-family="Virgil, Segoe UI Emoji" font-size="20px" fill="#1e1e1e" text-anchor="start" style="white-space: pre;" direction="ltr" dominant-baseline="text-before-edge">id</text><text x="0" y="25" font-family="Virgil, Segoe UI Emoji" font-size="20px" fill="#1e1e1e" text-anchor="start" style="white-space: pre;" direction="ltr" dominant-baseline="text-before-edge">client_id</text><text x="0" y="50" font-family="Virgil, Segoe UI Emoji" font-size="20px" fill="#1e1e1e" text-anchor="start" style="white-space: pre;" direction="ltr" dominant-baseline="text-before-edge">Dirección</text><text x="0" y="75" font-family="Virgil, Segoe UI Emoji" font-size="20px" fill="#1e1e1e" text-anchor="start" style="white-space: pre;" direction="ltr" dominant-baseline="text-before-edge">Parcela en catastro o Coordenadas.</text><text x="0" y="100" font-family="Virgil, Segoe UI Emoji" font-size="20px" fill="#1e1e1e" text-anchor="start" style="white-space: pre;" direction="ltr" dominant-baseline="text-before-edge">Facturas=[foto 1, foto 2, foto 3]</text><text x="0" y="125" font-family="Virgil, Segoe UI Emoji" font-size="20px" fill="#1e1e1e" text-anchor="start" style="white-space: pre;" direction="ltr" dominant-baseline="text-before-edge">Propuesta SUNRUN PK</text><text x="0" y="150" font-family="Virgil, Segoe UI Emoji" font-size="20px" fill="#1e1e1e" text-anchor="start" style="white-space: pre;" direction="ltr" dominant-baseline="text-before-edge">Estatus del cliente</text><text x="0" y="175" font-family="Virgil, Segoe UI Emoji" font-size="20px" fill="#1e1e1e" text-anchor="start" style="white-space: pre;" direction="ltr" dominant-baseline="text-before-edge">EPC</text><text x="0" y="200" font-family="Virgil, Segoe UI Emoji" font-size="20px" fill="#1e1e1e" text-anchor="start" style="white-space: pre;" direction="ltr" dominant-baseline="text-before-edge">System Size</text><text x="0" y="225" font-family="Virgil, Segoe UI Emoji" font-size="20px" fill="#1e1e1e" text-anchor="start" style="white-space: pre;" direction="ltr" dominant-baseline="text-before-edge">Numero de placas.</text><text x="0" y="250" font-family="Virgil, Segoe UI Emoji" font-size="20px" fill="#1e1e1e" text-anchor="start" style="white-space: pre;" direction="ltr" dominant-baseline="text-before-edge">Sugerencias/Solicitudes: (bateria, cantidad placas...etc)</text></g><g transform="translate(581.0697806487922 1864.9627573490143) rotate(12.751545563818961 104.38202667236328 22.5)"><text x="0" y="0" font-family="Virgil, Segoe UI Emoji" font-size="36px" fill="#1e1e1e" text-anchor="start" style="white-space: pre;" direction="ltr" dominant-baseline="text-before-edge">Propiedades</text></g></svg>